<?xml version="1.0" encoding="UTF-8" standalone="no"?>
<!DOCTYPE svg PUBLIC "-//W3C//DTD SVG 1.1//EN"
 "http://www.w3.org/Graphics/SVG/1.1/DTD/svg11.dtd">
<!-- Generated by graphviz version 2.36.0 (20140111.2315)
 -->
<!-- Title: python_programming_chart Pages: 1 -->
<svg width="2744pt" height="1610pt"
 viewBox="0.00 0.00 2744.00 1610.00" xmlns="http://www.w3.org/2000/svg" xmlns:xlink="http://www.w3.org/1999/xlink">
<g id="graph0" class="graph" transform="scale(1 1) rotate(0) translate(4 1606)">
<title>python_programming_chart</title>
<polygon fill="white" stroke="none" points="-4,4 -4,-1606 2740,-1606 2740,4 -4,4"/>
<!-- Start -->
<g id="node1" class="node"><title>Start</title>
<polygon fill="none" stroke="black" points="54,-468 0,-468 0,-432 54,-432 54,-468"/>
<text text-anchor="middle" x="27" y="-445.8" font-family="Times,serif" font-size="14.00">Start</text>
</g>
<!-- 具体的に実現したい目的が既にある？ -->
<g id="node2" class="node"><title>具体的に実現したい目的が既にある？</title>
<polygon fill="none" stroke="black" points="331.365,-468 92.6354,-468 92.6354,-432 331.365,-432 331.365,-468"/>
<text text-anchor="middle" x="212" y="-445.8" font-family="Times,serif" font-size="14.00">具体的に実現したい目的が既にある？</text>
</g>
<!-- Start&#45;&gt;具体的に実現したい目的が既にある？ -->
<g id="edge1" class="edge"><title>Start&#45;&gt;具体的に実現したい目的が既にある？</title>
<path fill="none" stroke="black" d="M54.2194,-450C62.383,-450 71.9931,-450 82.3706,-450"/>
<polygon fill="black" stroke="black" points="82.5331,-453.5 92.533,-450 82.533,-446.5 82.5331,-453.5"/>
</g>
<!-- プログラミング自体が初めて？ -->
<g id="node4" class="node"><title>プログラミング自体が初めて？</title>
<polygon fill="none" stroke="black" points="729.073,-1089 526.927,-1089 526.927,-1053 729.073,-1053 729.073,-1089"/>
<text text-anchor="middle" x="628" y="-1066.8" font-family="Times,serif" font-size="14.00">プログラミング自体が初めて？</text>
</g>
<!-- 具体的に実現したい目的が既にある？&#45;&gt;プログラミング自体が初めて？ -->
<g id="edge2" class="edge"><title>具体的に実現したい目的が既にある？&#45;&gt;プログラミング自体が初めて？</title>
<path fill="none" stroke="black" d="M225.166,-468.249C284.021,-556.531 539.219,-939.329 609.196,-1044.29"/>
<polygon fill="black" stroke="black" points="606.374,-1046.37 614.833,-1052.75 612.198,-1042.49 606.374,-1046.37"/>
<text text-anchor="middle" x="410" y="-839.2" font-family="Times,serif" font-size="14.00">特に決まっていない</text>
</g>
<!-- 機械学習 -->
<g id="node7" class="node"><title>機械学習</title>
<polygon fill="none" stroke="black" points="661.894,-718 594.106,-718 594.106,-682 661.894,-682 661.894,-718"/>
<text text-anchor="middle" x="628" y="-695.8" font-family="Times,serif" font-size="14.00">機械学習</text>
</g>
<!-- 具体的に実現したい目的が既にある？&#45;&gt;機械学習 -->
<g id="edge20" class="edge"><title>具体的に実現したい目的が既にある？&#45;&gt;機械学習</title>
<path fill="none" stroke="black" d="M243.107,-468.181C316.745,-512.648 505.901,-626.873 588.003,-676.451"/>
<polygon fill="black" stroke="black" points="586.636,-679.714 597.006,-681.887 590.254,-673.722 586.636,-679.714"/>
</g>
<!-- IoTとか組み込み系 -->
<g id="node11" class="node"><title>IoTとか組み込み系</title>
<polygon fill="none" stroke="black" points="699.146,-603 556.854,-603 556.854,-567 699.146,-567 699.146,-603"/>
<text text-anchor="middle" x="628" y="-580.8" font-family="Times,serif" font-size="14.00">IoTとか組み込み系</text>
</g>
<!-- 具体的に実現したい目的が既にある？&#45;&gt;IoTとか組み込み系 -->
<g id="edge31" class="edge"><title>具体的に実現したい目的が既にある？&#45;&gt;IoTとか組み込み系</title>
<path fill="none" stroke="black" d="M268.404,-468.067C344.52,-492.887 481.172,-537.447 562.019,-563.81"/>
<polygon fill="black" stroke="black" points="561.001,-567.16 571.594,-566.933 563.171,-560.505 561.001,-567.16"/>
</g>
<!-- Webアプリ -->
<g id="node12" class="node"><title>Webアプリ</title>
<polygon fill="none" stroke="black" points="668.732,-522 587.268,-522 587.268,-486 668.732,-486 668.732,-522"/>
<text text-anchor="middle" x="628" y="-499.8" font-family="Times,serif" font-size="14.00">Webアプリ</text>
</g>
<!-- 具体的に実現したい目的が既にある？&#45;&gt;Webアプリ -->
<g id="edge33" class="edge"><title>具体的に実現したい目的が既にある？&#45;&gt;Webアプリ</title>
<path fill="none" stroke="black" d="M331.636,-465.474C412.949,-476.08 516.658,-489.608 577.067,-497.487"/>
<polygon fill="black" stroke="black" points="576.736,-500.973 587.104,-498.796 577.641,-494.032 576.736,-500.973"/>
</g>
<!-- データ収集（クローラ/スクレイピング） -->
<g id="node14" class="node"><title>データ収集（クローラ/スクレイピング）</title>
<polygon fill="none" stroke="black" points="768.245,-468 487.755,-468 487.755,-432 768.245,-432 768.245,-468"/>
<text text-anchor="middle" x="628" y="-445.8" font-family="Times,serif" font-size="14.00">データ収集（クローラ/スクレイピング）</text>
</g>
<!-- 具体的に実現したい目的が既にある？&#45;&gt;データ収集（クローラ/スクレイピング） -->
<g id="edge38" class="edge"><title>具体的に実現したい目的が既にある？&#45;&gt;データ収集（クローラ/スクレイピング）</title>
<path fill="none" stroke="black" d="M331.636,-450C377.142,-450 429.663,-450 477.683,-450"/>
<polygon fill="black" stroke="black" points="477.857,-453.5 487.857,-450 477.857,-446.5 477.857,-453.5"/>
</g>
<!-- ゲームアプリ -->
<g id="node15" class="node"><title>ゲームアプリ</title>
<polygon fill="none" stroke="black" points="678.891,-414 577.109,-414 577.109,-378 678.891,-378 678.891,-414"/>
<text text-anchor="middle" x="628" y="-391.8" font-family="Times,serif" font-size="14.00">ゲームアプリ</text>
</g>
<!-- 具体的に実現したい目的が既にある？&#45;&gt;ゲームアプリ -->
<g id="edge40" class="edge"><title>具体的に実現したい目的が既にある？&#45;&gt;ゲームアプリ</title>
<path fill="none" stroke="black" d="M331.636,-434.526C408.545,-424.494 505.489,-411.849 566.88,-403.842"/>
<polygon fill="black" stroke="black" points="567.704,-407.264 577.167,-402.5 566.799,-400.323 567.704,-407.264"/>
</g>
<!-- 統計処理/データ分析 -->
<g id="node18" class="node"><title>統計処理/データ分析</title>
<polygon fill="none" stroke="black" points="700.246,-286 555.754,-286 555.754,-250 700.246,-250 700.246,-286"/>
<text text-anchor="middle" x="628" y="-263.8" font-family="Times,serif" font-size="14.00">統計処理/データ分析</text>
</g>
<!-- 具体的に実現したい目的が既にある？&#45;&gt;統計処理/データ分析 -->
<g id="edge47" class="edge"><title>具体的に実現したい目的が既にある？&#45;&gt;統計処理/データ分析</title>
<path fill="none" stroke="black" d="M254.209,-431.884C330.62,-398.293 494.01,-326.464 576.759,-290.087"/>
<polygon fill="black" stroke="black" points="578.211,-293.272 585.957,-286.043 575.394,-286.863 578.211,-293.272"/>
</g>
<!-- 広い意味での問題解決 -->
<g id="node22" class="node"><title>広い意味での問題解決</title>
<polygon fill="none" stroke="black" points="709.119,-144 546.881,-144 546.881,-108 709.119,-108 709.119,-144"/>
<text text-anchor="middle" x="628" y="-121.8" font-family="Times,serif" font-size="14.00">広い意味での問題解決</text>
</g>
<!-- 具体的に実現したい目的が既にある？&#45;&gt;広い意味での問題解決 -->
<g id="edge56" class="edge"><title>具体的に実現したい目的が既にある？&#45;&gt;広い意味での問題解決</title>
<path fill="none" stroke="black" d="M233.573,-431.929C260.104,-408.777 307.851,-367.622 350,-334 436.174,-265.26 540.952,-188.323 593.516,-150.167"/>
<polygon fill="black" stroke="black" points="595.755,-152.867 601.797,-144.164 591.647,-147.2 595.755,-152.867"/>
</g>
<!-- 自然言語処理 -->
<g id="node23" class="node"><title>自然言語処理</title>
<polygon fill="none" stroke="black" points="682.928,-63 573.072,-63 573.072,-27 682.928,-27 682.928,-63"/>
<text text-anchor="middle" x="628" y="-40.8" font-family="Times,serif" font-size="14.00">自然言語処理</text>
</g>
<!-- 具体的に実現したい目的が既にある？&#45;&gt;自然言語処理 -->
<g id="edge59" class="edge"><title>具体的に実現したい目的が既にある？&#45;&gt;自然言語処理</title>
<path fill="none" stroke="black" d="M221.855,-431.777C251.087,-373.599 350.537,-190.762 488,-99 510.906,-83.7094 538.777,-71.8022 563.531,-63.1067"/>
<polygon fill="black" stroke="black" points="564.867,-66.3492 573.206,-59.8132 562.611,-59.7227 564.867,-66.3492"/>
</g>
<!-- 課題例 -->
<g id="node3" class="node"><title>課題例</title>
<polygon fill="none" stroke="black" points="1601.04,-1494 1534.96,-1494 1534.96,-1458 1601.04,-1458 1601.04,-1494"/>
<text text-anchor="middle" x="1568" y="-1471.8" font-family="Times,serif" font-size="14.00">課題例</text>
</g>
<!-- CodeIQ -->
<g id="node55" class="node"><title>CodeIQ</title>
<g id="a_node55"><a xlink:href="https://codeiq.jp" xlink:title="CodeIQ">
<polygon fill="none" stroke="black" points="2436.09,-1584 2412.04,-1602 2363.96,-1602 2339.91,-1584 2363.96,-1566 2412.04,-1566 2436.09,-1584"/>
<text text-anchor="middle" x="2388" y="-1579.8" font-family="Times,serif" font-size="14.00" fill="blue">CodeIQ</text>
</a>
</g>
</g>
<!-- 課題例&#45;&gt;CodeIQ -->
<g id="edge16" class="edge"><title>課題例&#45;&gt;CodeIQ</title>
<path fill="none" stroke="black" d="M1601.11,-1482.58C1677.07,-1497.92 1873.89,-1536.3 2040,-1557 2142.95,-1569.83 2263.88,-1577.59 2332.37,-1581.32"/>
<polygon fill="black" stroke="black" points="2332.33,-1584.82 2342.5,-1581.86 2332.7,-1577.83 2332.33,-1584.82"/>
</g>
<!-- 言語処理100本ノック 2015 -->
<g id="node56" class="node"><title>言語処理100本ノック 2015</title>
<g id="a_node56"><a xlink:href="http://www.cl.ecei.tohoku.ac.jp/nlp100/" xlink:title="言語処理100本ノック 2015">
<polygon fill="none" stroke="black" points="2530.41,-1530 2459.2,-1548 2316.8,-1548 2245.59,-1530 2316.8,-1512 2459.2,-1512 2530.41,-1530"/>
<text text-anchor="middle" x="2388" y="-1525.8" font-family="Times,serif" font-size="14.00" fill="blue">言語処理100本ノック 2015</text>
</a>
</g>
</g>
<!-- 課題例&#45;&gt;言語処理100本ノック 2015 -->
<g id="edge17" class="edge"><title>課題例&#45;&gt;言語処理100本ノック 2015</title>
<path fill="none" stroke="black" d="M1601.07,-1478.12C1710.4,-1485.33 2072.38,-1509.23 2264.59,-1521.92"/>
<polygon fill="black" stroke="black" points="2264.53,-1525.42 2274.74,-1522.59 2264.99,-1518.44 2264.53,-1525.42"/>
</g>
<!-- プログラミングコンテスト -->
<g id="node57" class="node"><title>プログラミングコンテスト</title>
<g id="a_node57"><a xlink:href="http://cocodrips.hateblo.jp/entry/2015/10/11/114212" xlink:title="プログラミングコンテスト">
<polygon fill="none" stroke="black" points="2515.47,-1476 2451.74,-1494 2324.26,-1494 2260.53,-1476 2324.26,-1458 2451.74,-1458 2515.47,-1476"/>
<text text-anchor="middle" x="2388" y="-1471.8" font-family="Times,serif" font-size="14.00" fill="blue">プログラミングコンテスト</text>
</a>
</g>
</g>
<!-- 課題例&#45;&gt;プログラミングコンテスト -->
<g id="edge18" class="edge"><title>課題例&#45;&gt;プログラミングコンテスト</title>
<path fill="none" stroke="black" d="M1601.07,-1476C1707.76,-1476 2055.1,-1476 2250.42,-1476"/>
<polygon fill="black" stroke="black" points="2250.47,-1479.5 2260.47,-1476 2250.47,-1472.5 2250.47,-1479.5"/>
</g>
<!-- CoodingBat -->
<g id="node58" class="node"><title>CoodingBat</title>
<g id="a_node58"><a xlink:href="http://codingbat.com/python" xlink:title="CoodingBat">
<polygon fill="none" stroke="black" points="2454.78,-1422 2421.39,-1440 2354.61,-1440 2321.22,-1422 2354.61,-1404 2421.39,-1404 2454.78,-1422"/>
<text text-anchor="middle" x="2388" y="-1417.8" font-family="Times,serif" font-size="14.00" fill="blue">CoodingBat</text>
</a>
</g>
</g>
<!-- 課題例&#45;&gt;CoodingBat -->
<g id="edge19" class="edge"><title>課題例&#45;&gt;CoodingBat</title>
<path fill="none" stroke="black" d="M1601.07,-1473.88C1721.7,-1465.92 2149.95,-1437.65 2318.31,-1426.53"/>
<polygon fill="black" stroke="black" points="2318.55,-1430.03 2328.3,-1425.88 2318.09,-1423.04 2318.55,-1430.03"/>
</g>
<!-- プログラミング自体が初めて？&#45;&gt;課題例 -->
<g id="edge15" class="edge"><title>プログラミング自体が初めて？&#45;&gt;課題例</title>
<path fill="none" stroke="black" d="M643.538,-1089.16C669.181,-1120.05 725.486,-1182.98 786,-1219 1043.14,-1372.06 1402.88,-1446.78 1524.74,-1468.83"/>
<polygon fill="black" stroke="black" points="1524.32,-1472.31 1534.78,-1470.62 1525.55,-1465.42 1524.32,-1472.31"/>
<text text-anchor="middle" x="951" y="-1368.2" font-family="Times,serif" font-size="14.00">No3（課題を探したい）</text>
</g>
<!-- 取り敢えず動かしながら学びたい -->
<g id="node5" class="node"><title>取り敢えず動かしながら学びたい</title>
<polygon fill="none" stroke="black" points="1663.86,-1278 1472.14,-1278 1472.14,-1242 1663.86,-1242 1663.86,-1278"/>
<text text-anchor="middle" x="1568" y="-1255.8" font-family="Times,serif" font-size="14.00">取り敢えず動かしながら学びたい</text>
</g>
<!-- プログラミング自体が初めて？&#45;&gt;取り敢えず動かしながら学びたい -->
<g id="edge3" class="edge"><title>プログラミング自体が初めて？&#45;&gt;取り敢えず動かしながら学びたい</title>
<path fill="none" stroke="black" d="M669.568,-1089.1C700.835,-1102.41 745.441,-1120.02 786,-1131 1023.3,-1195.24 1310.32,-1232.69 1461.7,-1249.42"/>
<polygon fill="black" stroke="black" points="1461.6,-1252.93 1471.92,-1250.54 1462.36,-1245.97 1461.6,-1252.93"/>
<text text-anchor="middle" x="951" y="-1203.2" font-family="Times,serif" font-size="14.00">Yes1（環境構築とか考えたくない）</text>
</g>
<!-- もう少し言語仕様を詳細に学びたい -->
<g id="node6" class="node"><title>もう少し言語仕様を詳細に学びたい</title>
<polygon fill="none" stroke="black" points="1682.95,-1143 1453.05,-1143 1453.05,-1107 1682.95,-1107 1682.95,-1143"/>
<text text-anchor="middle" x="1568" y="-1120.8" font-family="Times,serif" font-size="14.00">もう少し言語仕様を詳細に学びたい</text>
</g>
<!-- プログラミング自体が初めて？&#45;&gt;もう少し言語仕様を詳細に学びたい -->
<g id="edge8" class="edge"><title>プログラミング自体が初めて？&#45;&gt;もう少し言語仕様を詳細に学びたい</title>
<path fill="none" stroke="black" d="M729.373,-1085.05C748.161,-1087.32 767.657,-1089.44 786,-1091 1017.33,-1110.74 1288.25,-1119.28 1442.54,-1122.77"/>
<polygon fill="black" stroke="black" points="1442.91,-1126.28 1452.99,-1123.01 1443.07,-1119.28 1442.91,-1126.28"/>
<text text-anchor="middle" x="951" y="-1115.2" font-family="Times,serif" font-size="14.00">Yes2（少しその先へ）</text>
</g>
<!-- google keywords: python3 プログラミング 本 -->
<g id="node30" class="node"><title>google keywords: python3 プログラミング 本</title>
<g id="a_node30"><a xlink:href="https://goo.gl/Xj40mU" xlink:title="google keywords: python3 プログラミング 本">
<polygon fill="none" stroke="black" points="1778.05,-1071 1673.03,-1089 1462.97,-1089 1357.95,-1071 1462.97,-1053 1673.03,-1053 1778.05,-1071"/>
<text text-anchor="middle" x="1568" y="-1066.8" font-family="Times,serif" font-size="14.00" fill="blue">google keywords: python3 プログラミング 本</text>
</a>
</g>
</g>
<!-- プログラミング自体が初めて？&#45;&gt;google keywords: python3 プログラミング 本 -->
<g id="edge12" class="edge"><title>プログラミング自体が初めて？&#45;&gt;google keywords: python3 プログラミング 本</title>
<path fill="none" stroke="black" d="M729.382,-1071C876.06,-1071 1152.68,-1071 1347.82,-1071"/>
<polygon fill="black" stroke="black" points="1347.93,-1074.5 1357.93,-1071 1347.93,-1067.5 1347.93,-1074.5"/>
<text text-anchor="middle" x="951" y="-1075.2" font-family="Times,serif" font-size="14.00">Yes3（他には？）</text>
</g>
<!-- みんなのPython Webアプリ編 &#45; 復習!! Python -->
<g id="node31" class="node"><title>みんなのPython Webアプリ編 &#45; 復習!! Python</title>
<g id="a_node31"><a xlink:href="http://coreblog.org/ats/stuff/minpy_web/02/index.html" xlink:title="みんなのPython Webアプリ編 &#45; 復習!! Python">
<polygon fill="none" stroke="black" points="1790.8,-1017 1679.4,-1035 1456.6,-1035 1345.2,-1017 1456.6,-999 1679.4,-999 1790.8,-1017"/>
<text text-anchor="middle" x="1568" y="-1012.8" font-family="Times,serif" font-size="14.00" fill="blue">みんなのPython Webアプリ編 &#45; 復習!! Python</text>
</a>
</g>
</g>
<!-- プログラミング自体が初めて？&#45;&gt;みんなのPython Webアプリ編 &#45; 復習!! Python -->
<g id="edge13" class="edge"><title>プログラミング自体が初めて？&#45;&gt;みんなのPython Webアプリ編 &#45; 復習!! Python</title>
<path fill="none" stroke="black" d="M729.358,-1056.35C748.148,-1053.99 767.648,-1051.8 786,-1050.2 978.983,-1033.35 1199.57,-1024.97 1356.98,-1020.85"/>
<polygon fill="black" stroke="black" points="1357.35,-1024.34 1367.25,-1020.58 1357.17,-1017.34 1357.35,-1024.34"/>
<text text-anchor="middle" x="951" y="-1054.2" font-family="Times,serif" font-size="14.00">No1（他言語でFizzBuzzレベルならやったことある）</text>
</g>
<!-- The Python Tutorial -->
<g id="node32" class="node"><title>The Python Tutorial</title>
<g id="a_node32"><a xlink:href="https://docs.python.org/3/tutorial/" xlink:title="The Python Tutorial">
<polygon fill="none" stroke="black" points="1671.36,-963 1619.68,-981 1516.32,-981 1464.64,-963 1516.32,-945 1619.68,-945 1671.36,-963"/>
<text text-anchor="middle" x="1568" y="-958.8" font-family="Times,serif" font-size="14.00" fill="blue">The Python Tutorial</text>
</a>
</g>
</g>
<!-- プログラミング自体が初めて？&#45;&gt;The Python Tutorial -->
<g id="edge14" class="edge"><title>プログラミング自体が初めて？&#45;&gt;The Python Tutorial</title>
<path fill="none" stroke="black" d="M664.424,-1052.98C695.574,-1038.09 742.589,-1017.87 786,-1008.2 1025.58,-954.837 1316.12,-954.291 1466.27,-958.584"/>
<polygon fill="black" stroke="black" points="1466.3,-962.086 1476.4,-958.887 1466.51,-955.089 1466.3,-962.086"/>
<text text-anchor="middle" x="951" y="-1012.2" font-family="Times,serif" font-size="14.00">No2（他言語で入門書ぐらいは通したことがある）</text>
</g>
<!-- Code School -->
<g id="node24" class="node"><title>Code School</title>
<g id="a_node24"><a xlink:href="https://www.codeschool.com/learn/python" xlink:title="Code School">
<polygon fill="none" stroke="black" points="2458.09,-1368 2423.04,-1386 2352.96,-1386 2317.91,-1368 2352.96,-1350 2423.04,-1350 2458.09,-1368"/>
<text text-anchor="middle" x="2388" y="-1363.8" font-family="Times,serif" font-size="14.00" fill="blue">Code School</text>
</a>
</g>
</g>
<!-- 取り敢えず動かしながら学びたい&#45;&gt;Code School -->
<g id="edge4" class="edge"><title>取り敢えず動かしながら学びたい&#45;&gt;Code School</title>
<path fill="none" stroke="black" d="M1658.92,-1278.02C1753.44,-1296.36 1906.62,-1324.38 2040,-1341 2134.16,-1352.73 2243.36,-1360.23 2313.73,-1364.27"/>
<polygon fill="black" stroke="black" points="2313.64,-1367.78 2323.82,-1364.85 2314.03,-1360.79 2313.64,-1367.78"/>
</g>
<!-- paiza -->
<g id="node25" class="node"><title>paiza</title>
<g id="a_node25"><a xlink:href="https://paiza.jp/works/python3/primer" xlink:title="paiza">
<polygon fill="none" stroke="black" points="2424.04,-1314 2406.02,-1332 2369.98,-1332 2351.96,-1314 2369.98,-1296 2406.02,-1296 2424.04,-1314"/>
<text text-anchor="middle" x="2388" y="-1309.8" font-family="Times,serif" font-size="14.00" fill="blue">paiza</text>
</a>
</g>
</g>
<!-- 取り敢えず動かしながら学びたい&#45;&gt;paiza -->
<g id="edge5" class="edge"><title>取り敢えず動かしながら学びたい&#45;&gt;paiza</title>
<path fill="none" stroke="black" d="M1664.03,-1266.27C1841.55,-1277.99 2217,-1302.78 2343.99,-1311.16"/>
<polygon fill="black" stroke="black" points="2343.89,-1314.66 2354.1,-1311.83 2344.35,-1307.68 2343.89,-1314.66"/>
</g>
<!-- progate -->
<g id="node26" class="node"><title>progate</title>
<g id="a_node26"><a xlink:href="https://prog-8.com" xlink:title="progate">
<polygon fill="none" stroke="black" points="2434.36,-1260 2411.18,-1278 2364.82,-1278 2341.64,-1260 2364.82,-1242 2411.18,-1242 2434.36,-1260"/>
<text text-anchor="middle" x="2388" y="-1255.8" font-family="Times,serif" font-size="14.00" fill="blue">progate</text>
</a>
</g>
</g>
<!-- 取り敢えず動かしながら学びたい&#45;&gt;progate -->
<g id="edge6" class="edge"><title>取り敢えず動かしながら学びたい&#45;&gt;progate</title>
<path fill="none" stroke="black" d="M1664.03,-1260C1835.95,-1260 2193.54,-1260 2331.26,-1260"/>
<polygon fill="black" stroke="black" points="2331.57,-1263.5 2341.57,-1260 2331.57,-1256.5 2331.57,-1263.5"/>
</g>
<!-- Everyday Python -->
<g id="node60" class="node"><title>Everyday Python</title>
<g id="a_node60"><a xlink:href="http://everydaypython.org/" xlink:title="Everyday Python">
<polygon fill="none" stroke="black" points="2477.71,-1206 2432.86,-1224 2343.14,-1224 2298.29,-1206 2343.14,-1188 2432.86,-1188 2477.71,-1206"/>
<text text-anchor="middle" x="2388" y="-1201.8" font-family="Times,serif" font-size="14.00" fill="blue">Everyday Python</text>
</a>
</g>
</g>
<!-- 取り敢えず動かしながら学びたい&#45;&gt;Everyday Python -->
<g id="edge7" class="edge"><title>取り敢えず動かしながら学びたい&#45;&gt;Everyday Python</title>
<path fill="none" stroke="black" d="M1664.03,-1253.73C1824.33,-1243.14 2146.03,-1221.91 2300.43,-1211.71"/>
<polygon fill="black" stroke="black" points="2301.06,-1215.18 2310.81,-1211.03 2300.6,-1208.2 2301.06,-1215.18"/>
</g>
<!-- 初めてのPython 第3版 -->
<g id="node27" class="node"><title>初めてのPython 第3版</title>
<g id="a_node27"><a xlink:href="https://www.oreilly.co.jp/books/9784873113937/" xlink:title="初めてのPython 第3版">
<polygon fill="none" stroke="black" points="2499.6,-1152 2443.8,-1170 2332.2,-1170 2276.4,-1152 2332.2,-1134 2443.8,-1134 2499.6,-1152"/>
<text text-anchor="middle" x="2388" y="-1147.8" font-family="Times,serif" font-size="14.00" fill="blue">初めてのPython 第3版</text>
</a>
</g>
</g>
<!-- もう少し言語仕様を詳細に学びたい&#45;&gt;初めてのPython 第3版 -->
<g id="edge9" class="edge"><title>もう少し言語仕様を詳細に学びたい&#45;&gt;初めてのPython 第3版</title>
<path fill="none" stroke="black" d="M1682.74,-1128.75C1839.74,-1133.94 2121.04,-1143.22 2276.38,-1148.35"/>
<polygon fill="black" stroke="black" points="2276.32,-1151.85 2286.43,-1148.68 2276.55,-1144.85 2276.32,-1151.85"/>
</g>
<!-- Learning Python, 5th Edition -->
<g id="node28" class="node"><title>Learning Python, 5th Edition</title>
<g id="a_node28"><a xlink:href="http://shop.oreilly.com/product/0636920028154.do" xlink:title="Learning Python, 5th Edition">
<polygon fill="none" stroke="black" points="2530.66,-1098 2459.33,-1116 2316.67,-1116 2245.34,-1098 2316.67,-1080 2459.33,-1080 2530.66,-1098"/>
<text text-anchor="middle" x="2388" y="-1093.8" font-family="Times,serif" font-size="14.00" fill="blue">Learning Python, 5th Edition</text>
</a>
</g>
</g>
<!-- もう少し言語仕様を詳細に学びたい&#45;&gt;Learning Python, 5th Edition -->
<g id="edge10" class="edge"><title>もう少し言語仕様を詳細に学びたい&#45;&gt;Learning Python, 5th Edition</title>
<path fill="none" stroke="black" d="M1682.74,-1121.25C1831.58,-1116.33 2092.13,-1107.73 2251.17,-1102.48"/>
<polygon fill="black" stroke="black" points="2251.62,-1105.97 2261.5,-1102.14 2251.39,-1098.97 2251.62,-1105.97"/>
</g>
<!-- Coursera -->
<g id="node29" class="node"><title>Coursera</title>
<g id="a_node29"><a xlink:href="https://www.coursera.org/courses?query=python" xlink:title="Coursera">
<polygon fill="none" stroke="black" points="2440.98,-1044 2414.49,-1062 2361.51,-1062 2335.02,-1044 2361.51,-1026 2414.49,-1026 2440.98,-1044"/>
<text text-anchor="middle" x="2388" y="-1039.8" font-family="Times,serif" font-size="14.00" fill="blue">Coursera</text>
</a>
</g>
</g>
<!-- もう少し言語仕様を詳細に学びたい&#45;&gt;Coursera -->
<g id="edge11" class="edge"><title>もう少し言語仕様を詳細に学びたい&#45;&gt;Coursera</title>
<path fill="none" stroke="black" d="M1683.17,-1134.66C1772.5,-1138.29 1898.51,-1134.61 2002,-1098 2021.53,-1091.09 2020.52,-1078.06 2040,-1071 2137.4,-1035.7 2259.98,-1035.57 2330.32,-1039.34"/>
<polygon fill="black" stroke="black" points="2330.54,-1042.86 2340.73,-1039.94 2330.95,-1035.87 2330.54,-1042.86"/>
</g>
<!-- 中身も勉強したい（機械学習） -->
<g id="node8" class="node"><title>中身も勉強したい（機械学習）</title>
<polygon fill="none" stroke="black" points="1678.33,-873 1457.67,-873 1457.67,-837 1678.33,-837 1678.33,-873"/>
<text text-anchor="middle" x="1568" y="-850.8" font-family="Times,serif" font-size="14.00">中身も勉強したい（機械学習）</text>
</g>
<!-- 機械学習&#45;&gt;中身も勉強したい（機械学習） -->
<g id="edge21" class="edge"><title>機械学習&#45;&gt;中身も勉強したい（機械学習）</title>
<path fill="none" stroke="black" d="M662.108,-705.471C786.756,-726.068 1231.64,-799.583 1447.63,-835.275"/>
<polygon fill="black" stroke="black" points="1447.3,-838.768 1457.74,-836.945 1448.44,-831.862 1447.3,-838.768"/>
</g>
<!-- 取り敢えず動かしたい（機械学習） -->
<g id="node9" class="node"><title>取り敢えず動かしたい（機械学習）</title>
<polygon fill="none" stroke="black" points="1678.43,-738 1457.57,-738 1457.57,-702 1678.43,-702 1678.43,-738"/>
<text text-anchor="middle" x="1568" y="-715.8" font-family="Times,serif" font-size="14.00">取り敢えず動かしたい（機械学習）</text>
</g>
<!-- 機械学習&#45;&gt;取り敢えず動かしたい（機械学習） -->
<g id="edge27" class="edge"><title>機械学習&#45;&gt;取り敢えず動かしたい（機械学習）</title>
<path fill="none" stroke="black" d="M662.108,-700.706C786.676,-703.362 1231.06,-712.837 1447.21,-717.446"/>
<polygon fill="black" stroke="black" points="1447.26,-720.948 1457.33,-717.662 1447.41,-713.949 1447.26,-720.948"/>
</g>
<!-- 事例ベースで学びたい（機械学習） -->
<g id="node10" class="node"><title>事例ベースで学びたい（機械学習）</title>
<polygon fill="none" stroke="black" points="1690.52,-684 1445.48,-684 1445.48,-648 1690.52,-648 1690.52,-684"/>
<text text-anchor="middle" x="1568" y="-661.8" font-family="Times,serif" font-size="14.00">事例ベースで学びたい（機械学習）</text>
</g>
<!-- 機械学習&#45;&gt;事例ベースで学びたい（機械学習） -->
<g id="edge29" class="edge"><title>機械学習&#45;&gt;事例ベースで学びたい（機械学習）</title>
<path fill="none" stroke="black" d="M662.108,-698.8C784.415,-694.367 1215.04,-678.758 1435.22,-670.777"/>
<polygon fill="black" stroke="black" points="1435.36,-674.274 1445.22,-670.414 1435.1,-667.279 1435.36,-674.274"/>
</g>
<!-- ゼロから作るDeep Learning -->
<g id="node33" class="node"><title>ゼロから作るDeep Learning</title>
<g id="a_node33"><a xlink:href="https://www.oreilly.co.jp/books/9784873117584/" xlink:title="ゼロから作るDeep Learning">
<polygon fill="none" stroke="black" points="2536.66,-990 2462.33,-1008 2313.67,-1008 2239.34,-990 2313.67,-972 2462.33,-972 2536.66,-990"/>
<text text-anchor="middle" x="2388" y="-985.8" font-family="Times,serif" font-size="14.00" fill="blue">ゼロから作るDeep Learning</text>
</a>
</g>
</g>
<!-- 中身も勉強したい（機械学習）&#45;&gt;ゼロから作るDeep Learning -->
<g id="edge22" class="edge"><title>中身も勉強したい（機械学習）&#45;&gt;ゼロから作るDeep Learning</title>
<path fill="none" stroke="black" d="M1678.63,-862.384C1768.5,-871.483 1897.46,-891.634 2002,-936 2021.07,-944.094 2020.52,-955.941 2040,-963 2108.08,-987.676 2188.47,-995.165 2254.72,-996.151"/>
<polygon fill="black" stroke="black" points="2254.77,-999.652 2264.81,-996.253 2254.85,-992.652 2254.77,-999.652"/>
</g>
<!-- Python Machine Learning -->
<g id="node34" class="node"><title>Python Machine Learning</title>
<g id="a_node34"><a xlink:href="https://github.com/rasbt/python-machine-learning-book" xlink:title="Python Machine Learning">
<polygon fill="none" stroke="black" points="2517.36,-936 2452.68,-954 2323.32,-954 2258.64,-936 2323.32,-918 2452.68,-918 2517.36,-936"/>
<text text-anchor="middle" x="2388" y="-931.8" font-family="Times,serif" font-size="14.00" fill="blue">Python Machine Learning</text>
</a>
</g>
</g>
<!-- 中身も勉強したい（機械学習）&#45;&gt;Python Machine Learning -->
<g id="edge23" class="edge"><title>中身も勉強したい（機械学習）&#45;&gt;Python Machine Learning</title>
<path fill="none" stroke="black" d="M1678.8,-868.737C1774.18,-880.395 1916.08,-897.08 2040,-909 2117.81,-916.485 2205.58,-923.299 2273.39,-928.21"/>
<polygon fill="black" stroke="black" points="2273.44,-931.723 2283.67,-928.951 2273.94,-924.741 2273.44,-931.723"/>
</g>
<!-- scikit&#45;learn: Machine Learning in Python -->
<g id="node35" class="node"><title>scikit&#45;learn: Machine Learning in Python</title>
<g id="a_node35"><a xlink:href="http://scikit-learn.org/stable/" xlink:title="scikit&#45;learn: Machine Learning in Python">
<polygon fill="none" stroke="black" points="2584.87,-882 2486.43,-900 2289.57,-900 2191.13,-882 2289.57,-864 2486.43,-864 2584.87,-882"/>
<text text-anchor="middle" x="2388" y="-877.8" font-family="Times,serif" font-size="14.00" fill="blue">scikit&#45;learn: Machine Learning in Python</text>
</a>
</g>
</g>
<!-- 中身も勉強したい（機械学習）&#45;&gt;scikit&#45;learn: Machine Learning in Python -->
<g id="edge24" class="edge"><title>中身も勉強したい（機械学習）&#45;&gt;scikit&#45;learn: Machine Learning in Python</title>
<path fill="none" stroke="black" d="M1678.47,-858.613C1814.71,-863.11 2049.11,-870.847 2210.77,-876.183"/>
<polygon fill="black" stroke="black" points="2210.72,-879.683 2220.83,-876.515 2210.95,-872.687 2210.72,-879.683"/>
</g>
<!-- 機械学習 はじめよう -->
<g id="node36" class="node"><title>機械学習 はじめよう</title>
<g id="a_node36"><a xlink:href="http://gihyo.jp/dev/serial/01/machine-learning" xlink:title="機械学習 はじめよう">
<polygon fill="none" stroke="black" points="2491.57,-828 2439.79,-846 2336.21,-846 2284.43,-828 2336.21,-810 2439.79,-810 2491.57,-828"/>
<text text-anchor="middle" x="2388" y="-823.8" font-family="Times,serif" font-size="14.00" fill="blue">機械学習 はじめよう</text>
</a>
</g>
</g>
<!-- 中身も勉強したい（機械学習）&#45;&gt;機械学習 はじめよう -->
<g id="edge25" class="edge"><title>中身も勉強したい（機械学習）&#45;&gt;機械学習 はじめよう</title>
<path fill="none" stroke="black" d="M1678.47,-851.387C1836.83,-846.16 2127.82,-836.555 2283.04,-831.431"/>
<polygon fill="black" stroke="black" points="2283.18,-834.929 2293.06,-831.101 2282.95,-827.932 2283.18,-834.929"/>
</g>
<!-- 機械学習の Python との出会い -->
<g id="node37" class="node"><title>機械学習の Python との出会い</title>
<g id="a_node37"><a xlink:href="http://www.kamishima.net/mlmpyja/" xlink:title="機械学習の Python との出会い">
<polygon fill="none" stroke="black" points="2550.94,-774 2469.47,-792 2306.53,-792 2225.06,-774 2306.53,-756 2469.47,-756 2550.94,-774"/>
<text text-anchor="middle" x="2388" y="-769.8" font-family="Times,serif" font-size="14.00" fill="blue">機械学習の Python との出会い</text>
</a>
</g>
</g>
<!-- 中身も勉強したい（機械学習）&#45;&gt;機械学習の Python との出会い -->
<g id="edge26" class="edge"><title>中身も勉強したい（機械学習）&#45;&gt;機械学習の Python との出会い</title>
<path fill="none" stroke="black" d="M1678.8,-841.263C1774.18,-829.605 1916.08,-812.92 2040,-801 2110.22,-794.245 2188.57,-788.035 2253.02,-783.279"/>
<polygon fill="black" stroke="black" points="2253.53,-786.751 2263.24,-782.528 2253.02,-779.77 2253.53,-786.751"/>
</g>
<!-- scikit&#45;learn: Quick Start -->
<g id="node38" class="node"><title>scikit&#45;learn: Quick Start</title>
<g id="a_node38"><a xlink:href="http://scikit-learn.org/stable/documentation.html" xlink:title="scikit&#45;learn: Quick Start">
<polygon fill="none" stroke="black" points="2507.77,-720 2447.88,-738 2328.12,-738 2268.23,-720 2328.12,-702 2447.88,-702 2507.77,-720"/>
<text text-anchor="middle" x="2388" y="-715.8" font-family="Times,serif" font-size="14.00" fill="blue">scikit&#45;learn: Quick Start</text>
</a>
</g>
</g>
<!-- 取り敢えず動かしたい（機械学習）&#45;&gt;scikit&#45;learn: Quick Start -->
<g id="edge28" class="edge"><title>取り敢えず動かしたい（機械学習）&#45;&gt;scikit&#45;learn: Quick Start</title>
<path fill="none" stroke="black" d="M1678.47,-720C1828.53,-720 2097.66,-720 2257.53,-720"/>
<polygon fill="black" stroke="black" points="2257.9,-723.5 2267.9,-720 2257.9,-716.5 2257.9,-723.5"/>
</g>
<!-- データサイエンティスト養成読本　機械学習入門編 -->
<g id="node39" class="node"><title>データサイエンティスト養成読本　機械学習入門編</title>
<g id="a_node39"><a xlink:href="https://www.amazon.co.jp/データサイエンティスト養成読本-機械学習入門編-比戸将平-ebook/dp/B0152OV4VW/" xlink:title="データサイエンティスト養成読本　機械学習入門編">
<polygon fill="none" stroke="black" points="2648.78,-666 2518.39,-684 2257.61,-684 2127.22,-666 2257.61,-648 2518.39,-648 2648.78,-666"/>
<text text-anchor="middle" x="2388" y="-661.8" font-family="Times,serif" font-size="14.00" fill="blue">データサイエンティスト養成読本　機械学習入門編</text>
</a>
</g>
</g>
<!-- 事例ベースで学びたい（機械学習）&#45;&gt;データサイエンティスト養成読本　機械学習入門編 -->
<g id="edge30" class="edge"><title>事例ベースで学びたい（機械学習）&#45;&gt;データサイエンティスト養成読本　機械学習入門編</title>
<path fill="none" stroke="black" d="M1690.58,-666C1802.5,-666 1972.47,-666 2116.48,-666"/>
<polygon fill="black" stroke="black" points="2116.8,-669.5 2126.8,-666 2116.8,-662.5 2116.8,-669.5"/>
</g>
<!-- Raspberry Piクックブック -->
<g id="node40" class="node"><title>Raspberry Piクックブック</title>
<g id="a_node40"><a xlink:href="https://www.oreilly.co.jp/books/9784873116907/" xlink:title="Raspberry Piクックブック">
<polygon fill="none" stroke="black" points="1700.6,-612 1634.3,-630 1501.7,-630 1435.4,-612 1501.7,-594 1634.3,-594 1700.6,-612"/>
<text text-anchor="middle" x="1568" y="-607.8" font-family="Times,serif" font-size="14.00" fill="blue">Raspberry Piクックブック</text>
</a>
</g>
</g>
<!-- IoTとか組み込み系&#45;&gt;Raspberry Piクックブック -->
<g id="edge32" class="edge"><title>IoTとか組み込み系&#45;&gt;Raspberry Piクックブック</title>
<path fill="none" stroke="black" d="M699.502,-587.029C856.518,-591.549 1236.94,-602.499 1437.81,-608.281"/>
<polygon fill="black" stroke="black" points="1437.73,-611.78 1447.83,-608.57 1437.93,-604.783 1437.73,-611.78"/>
</g>
<!-- Django -->
<g id="node13" class="node"><title>Django</title>
<polygon fill="none" stroke="black" points="1596.71,-576 1539.29,-576 1539.29,-540 1596.71,-540 1596.71,-576"/>
<text text-anchor="middle" x="1568" y="-553.8" font-family="Times,serif" font-size="14.00">Django</text>
</g>
<!-- Webアプリ&#45;&gt;Django -->
<g id="edge35" class="edge"><title>Webアプリ&#45;&gt;Django</title>
<path fill="none" stroke="black" d="M668.65,-507.953C700.373,-511.015 746.008,-515.194 786,-518 1071.37,-538.024 1416.06,-552.183 1529.1,-556.567"/>
<polygon fill="black" stroke="black" points="1529.18,-560.073 1539.31,-556.961 1529.45,-553.078 1529.18,-560.073"/>
</g>
<!-- PythonでWeb開発入門 みんなのPython Webアプリ編 HTML版 -->
<g id="node41" class="node"><title>PythonでWeb開発入門 みんなのPython Webアプリ編 HTML版</title>
<g id="a_node41"><a xlink:href="http://coreblog.org/ats/stuff/minpy_web/" xlink:title="PythonでWeb開発入門 みんなのPython Webアプリ編 HTML版">
<polygon fill="none" stroke="black" points="1880.47,-504 1724.24,-522 1411.76,-522 1255.53,-504 1411.76,-486 1724.24,-486 1880.47,-504"/>
<text text-anchor="middle" x="1568" y="-499.8" font-family="Times,serif" font-size="14.00" fill="blue">PythonでWeb開発入門 みんなのPython Webアプリ編 HTML版</text>
</a>
</g>
</g>
<!-- Webアプリ&#45;&gt;PythonでWeb開発入門 みんなのPython Webアプリ編 HTML版 -->
<g id="edge34" class="edge"><title>Webアプリ&#45;&gt;PythonでWeb開発入門 みんなのPython Webアプリ編 HTML版</title>
<path fill="none" stroke="black" d="M668.706,-504C767.004,-504 1029.37,-504 1245.34,-504"/>
<polygon fill="black" stroke="black" points="1245.59,-507.5 1255.59,-504 1245.59,-500.5 1245.59,-507.5"/>
</g>
<!-- Getting started with Django -->
<g id="node42" class="node"><title>Getting started with Django</title>
<g id="a_node42"><a xlink:href="https://www.djangoproject.com/start/" xlink:title="Getting started with Django">
<polygon fill="none" stroke="black" points="2524.85,-612 2456.42,-630 2319.58,-630 2251.15,-612 2319.58,-594 2456.42,-594 2524.85,-612"/>
<text text-anchor="middle" x="2388" y="-607.8" font-family="Times,serif" font-size="14.00" fill="blue">Getting started with Django</text>
</a>
</g>
</g>
<!-- Django&#45;&gt;Getting started with Django -->
<g id="edge36" class="edge"><title>Django&#45;&gt;Getting started with Django</title>
<path fill="none" stroke="black" d="M1596.61,-559.647C1665.21,-563.756 1848.87,-574.857 2002,-585 2092.06,-590.966 2193.94,-598.129 2270.26,-603.577"/>
<polygon fill="black" stroke="black" points="2270.16,-607.079 2280.38,-604.301 2270.66,-600.097 2270.16,-607.079"/>
</g>
<!-- Django: Web Development with Python -->
<g id="node43" class="node"><title>Django: Web Development with Python</title>
<g id="a_node43"><a xlink:href="http://shop.oreilly.com/product/9781787121386.do" xlink:title="Django: Web Development with Python">
<polygon fill="none" stroke="black" points="2580.23,-558 2484.11,-576 2291.89,-576 2195.77,-558 2291.89,-540 2484.11,-540 2580.23,-558"/>
<text text-anchor="middle" x="2388" y="-553.8" font-family="Times,serif" font-size="14.00" fill="blue">Django: Web Development with Python</text>
</a>
</g>
</g>
<!-- Django&#45;&gt;Django: Web Development with Python -->
<g id="edge37" class="edge"><title>Django&#45;&gt;Django: Web Development with Python</title>
<path fill="none" stroke="black" d="M1596.69,-558C1687.6,-558 1982.74,-558 2185.44,-558"/>
<polygon fill="black" stroke="black" points="2185.62,-561.5 2195.62,-558 2185.62,-554.5 2185.62,-561.5"/>
</g>
<!-- PythonによるWebスクレイピング -->
<g id="node44" class="node"><title>PythonによるWebスクレイピング</title>
<g id="a_node44"><a xlink:href="https://www.oreilly.co.jp/books/9784873117614/" xlink:title="PythonによるWebスクレイピング">
<polygon fill="none" stroke="black" points="1731.12,-450 1649.56,-468 1486.44,-468 1404.88,-450 1486.44,-432 1649.56,-432 1731.12,-450"/>
<text text-anchor="middle" x="1568" y="-445.8" font-family="Times,serif" font-size="14.00" fill="blue">PythonによるWebスクレイピング</text>
</a>
</g>
</g>
<!-- データ収集（クローラ/スクレイピング）&#45;&gt;PythonによるWebスクレイピング -->
<g id="edge39" class="edge"><title>データ収集（クローラ/スクレイピング）&#45;&gt;PythonによるWebスクレイピング</title>
<path fill="none" stroke="black" d="M768.162,-450C934.895,-450 1214.26,-450 1394.53,-450"/>
<polygon fill="black" stroke="black" points="1394.65,-453.5 1404.65,-450 1394.65,-446.5 1394.65,-453.5"/>
</g>
<!-- PCアプリ -->
<g id="node16" class="node"><title>PCアプリ</title>
<polygon fill="none" stroke="black" points="1603.92,-414 1532.08,-414 1532.08,-378 1603.92,-378 1603.92,-414"/>
<text text-anchor="middle" x="1568" y="-391.8" font-family="Times,serif" font-size="14.00">PCアプリ</text>
</g>
<!-- ゲームアプリ&#45;&gt;PCアプリ -->
<g id="edge41" class="edge"><title>ゲームアプリ&#45;&gt;PCアプリ</title>
<path fill="none" stroke="black" d="M678.769,-396C842.601,-396 1363.59,-396 1521.32,-396"/>
<polygon fill="black" stroke="black" points="1521.61,-399.5 1531.61,-396 1521.61,-392.5 1521.61,-399.5"/>
</g>
<!-- スマートフォンアプリ -->
<g id="node17" class="node"><title>スマートフォンアプリ</title>
<polygon fill="none" stroke="black" points="1641.07,-360 1494.93,-360 1494.93,-324 1641.07,-324 1641.07,-360"/>
<text text-anchor="middle" x="1568" y="-337.8" font-family="Times,serif" font-size="14.00">スマートフォンアプリ</text>
</g>
<!-- ゲームアプリ&#45;&gt;スマートフォンアプリ -->
<g id="edge44" class="edge"><title>ゲームアプリ&#45;&gt;スマートフォンアプリ</title>
<path fill="none" stroke="black" d="M678.769,-393.135C831.529,-384.341 1294.81,-357.67 1484.59,-346.744"/>
<polygon fill="black" stroke="black" points="1485,-350.227 1494.78,-346.158 1484.6,-343.238 1485,-350.227"/>
</g>
<!-- Pythonでゲーム作りますが何か？ -->
<g id="node45" class="node"><title>Pythonでゲーム作りますが何か？</title>
<g id="a_node45"><a xlink:href="http://aidiary.hatenablog.com/entry/20080507/1269694935" xlink:title="Pythonでゲーム作りますが何か？">
<polygon fill="none" stroke="black" points="2574.16,-504 2481.08,-522 2294.92,-522 2201.84,-504 2294.92,-486 2481.08,-486 2574.16,-504"/>
<text text-anchor="middle" x="2388" y="-499.8" font-family="Times,serif" font-size="14.00" fill="blue">Pythonでゲーム作りますが何か？</text>
</a>
</g>
</g>
<!-- PCアプリ&#45;&gt;Pythonでゲーム作りますが何か？ -->
<g id="edge42" class="edge"><title>PCアプリ&#45;&gt;Pythonでゲーム作りますが何か？</title>
<path fill="none" stroke="black" d="M1604.09,-388.593C1681.62,-374.166 1871.02,-349.746 2002,-423 2027.61,-437.325 2014.5,-462.479 2040,-477 2108.07,-515.757 2196.17,-522.187 2266.56,-519.091"/>
<polygon fill="black" stroke="black" points="2267.01,-522.573 2276.82,-518.568 2266.65,-515.582 2267.01,-522.573"/>
</g>
<!-- Pygame -->
<g id="node46" class="node"><title>Pygame</title>
<g id="a_node46"><a xlink:href="http://www.pygame.org/news.html" xlink:title="Pygame">
<polygon fill="none" stroke="black" points="2436.84,-450 2412.42,-468 2363.58,-468 2339.16,-450 2363.58,-432 2412.42,-432 2436.84,-450"/>
<text text-anchor="middle" x="2388" y="-445.8" font-family="Times,serif" font-size="14.00" fill="blue">Pygame</text>
</a>
</g>
</g>
<!-- PCアプリ&#45;&gt;Pygame -->
<g id="edge43" class="edge"><title>PCアプリ&#45;&gt;Pygame</title>
<path fill="none" stroke="black" d="M1604.08,-398.095C1677.79,-402.518 1854.13,-413.205 2002,-423 2120.29,-430.836 2258.97,-440.737 2333.36,-446.106"/>
<polygon fill="black" stroke="black" points="2333.19,-449.603 2343.42,-446.833 2333.69,-442.622 2333.19,-449.603"/>
</g>
<!-- Pythonista 3 -->
<g id="node47" class="node"><title>Pythonista 3</title>
<g id="a_node47"><a xlink:href="http://omz-software.com/pythonista/" xlink:title="Pythonista 3">
<polygon fill="none" stroke="black" points="2456.38,-396 2422.19,-414 2353.81,-414 2319.62,-396 2353.81,-378 2422.19,-378 2456.38,-396"/>
<text text-anchor="middle" x="2388" y="-391.8" font-family="Times,serif" font-size="14.00" fill="blue">Pythonista 3</text>
</a>
</g>
</g>
<!-- スマートフォンアプリ&#45;&gt;Pythonista 3 -->
<g id="edge46" class="edge"><title>スマートフォンアプリ&#45;&gt;Pythonista 3</title>
<path fill="none" stroke="black" d="M1641.41,-346.343C1727.41,-351.542 1875.18,-360.599 2002,-369 2112.37,-376.311 2240.5,-385.421 2317.58,-390.969"/>
<polygon fill="black" stroke="black" points="2317.42,-394.467 2327.65,-391.695 2317.93,-387.485 2317.42,-394.467"/>
</g>
<!-- （別言語を選んだほうが、、） -->
<g id="node61" class="node"><title>（別言語を選んだほうが、、）</title>
<polygon fill="none" stroke="black" points="2561.75,-342 2474.88,-360 2301.12,-360 2214.25,-342 2301.12,-324 2474.88,-324 2561.75,-342"/>
<text text-anchor="middle" x="2388" y="-337.8" font-family="Times,serif" font-size="14.00" fill="blue">（別言語を選んだほうが、、）</text>
</g>
<!-- スマートフォンアプリ&#45;&gt;（別言語を選んだほうが、、） -->
<g id="edge45" class="edge"><title>スマートフォンアプリ&#45;&gt;（別言語を選んだほうが、、）</title>
<path fill="none" stroke="black" d="M1641.23,-342C1766.19,-342 2026.31,-342 2203.81,-342"/>
<polygon fill="black" stroke="black" points="2204.05,-345.5 2214.05,-342 2204.05,-338.5 2204.05,-345.5"/>
</g>
<!-- ベクトル・行列演算 -->
<g id="node19" class="node"><title>ベクトル・行列演算</title>
<polygon fill="none" stroke="black" points="1640.09,-306 1495.91,-306 1495.91,-270 1640.09,-270 1640.09,-306"/>
<text text-anchor="middle" x="1568" y="-283.8" font-family="Times,serif" font-size="14.00">ベクトル・行列演算</text>
</g>
<!-- 統計処理/データ分析&#45;&gt;ベクトル・行列演算 -->
<g id="edge48" class="edge"><title>統計処理/データ分析&#45;&gt;ベクトル・行列演算</title>
<path fill="none" stroke="black" d="M700.272,-269.52C871.384,-273.168 1304.6,-282.405 1485.58,-286.264"/>
<polygon fill="black" stroke="black" points="1485.76,-289.769 1495.84,-286.483 1485.91,-282.77 1485.76,-289.769"/>
</g>
<!-- データ分析 -->
<g id="node20" class="node"><title>データ分析</title>
<polygon fill="none" stroke="black" points="1609.3,-252 1526.7,-252 1526.7,-216 1609.3,-216 1609.3,-252"/>
<text text-anchor="middle" x="1568" y="-229.8" font-family="Times,serif" font-size="14.00">データ分析</text>
</g>
<!-- 統計処理/データ分析&#45;&gt;データ分析 -->
<g id="edge50" class="edge"><title>統計処理/データ分析&#45;&gt;データ分析</title>
<path fill="none" stroke="black" d="M700.272,-265.417C881.967,-258.831 1359.19,-241.533 1516.15,-235.843"/>
<polygon fill="black" stroke="black" points="1516.59,-239.33 1526.46,-235.47 1516.34,-232.334 1516.59,-239.33"/>
</g>
<!-- 応用例（データ分析活用） -->
<g id="node21" class="node"><title>応用例（データ分析活用）</title>
<polygon fill="none" stroke="black" points="1663.02,-198 1472.98,-198 1472.98,-162 1663.02,-162 1663.02,-198"/>
<text text-anchor="middle" x="1568" y="-175.8" font-family="Times,serif" font-size="14.00">応用例（データ分析活用）</text>
</g>
<!-- 統計処理/データ分析&#45;&gt;応用例（データ分析活用） -->
<g id="edge54" class="edge"><title>統計処理/データ分析&#45;&gt;応用例（データ分析活用）</title>
<path fill="none" stroke="black" d="M700.477,-258.155C727.287,-254.537 758.028,-250.478 786,-247 940.495,-227.79 978.922,-220.738 1134,-207 1246.04,-197.074 1374.71,-189.541 1462.48,-184.986"/>
<polygon fill="black" stroke="black" points="1462.91,-188.469 1472.71,-184.46 1462.55,-181.479 1462.91,-188.469"/>
</g>
<!-- Numpy: Quickstart tutorial -->
<g id="node48" class="node"><title>Numpy: Quickstart tutorial</title>
<g id="a_node48"><a xlink:href="https://docs.scipy.org/doc/numpy-dev/user/quickstart.html" xlink:title="Numpy: Quickstart tutorial">
<polygon fill="none" stroke="black" points="2521.54,-288 2454.77,-306 2321.23,-306 2254.46,-288 2321.23,-270 2454.77,-270 2521.54,-288"/>
<text text-anchor="middle" x="2388" y="-283.8" font-family="Times,serif" font-size="14.00" fill="blue">Numpy: Quickstart tutorial</text>
</a>
</g>
</g>
<!-- ベクトル・行列演算&#45;&gt;Numpy: Quickstart tutorial -->
<g id="edge49" class="edge"><title>ベクトル・行列演算&#45;&gt;Numpy: Quickstart tutorial</title>
<path fill="none" stroke="black" d="M1640.16,-288C1774.47,-288 2067.66,-288 2244.1,-288"/>
<polygon fill="black" stroke="black" points="2244.24,-291.5 2254.24,-288 2244.24,-284.5 2244.24,-291.5"/>
</g>
<!-- 10 Minutes to pandas -->
<g id="node49" class="node"><title>10 Minutes to pandas</title>
<g id="a_node49"><a xlink:href="http://pandas.pydata.org/pandas-docs/stable/10min.html" xlink:title="10 Minutes to pandas">
<polygon fill="none" stroke="black" points="2496.38,-234 2442.19,-252 2333.81,-252 2279.62,-234 2333.81,-216 2442.19,-216 2496.38,-234"/>
<text text-anchor="middle" x="2388" y="-229.8" font-family="Times,serif" font-size="14.00" fill="blue">10 Minutes to pandas</text>
</a>
</g>
</g>
<!-- データ分析&#45;&gt;10 Minutes to pandas -->
<g id="edge51" class="edge"><title>データ分析&#45;&gt;10 Minutes to pandas</title>
<path fill="none" stroke="black" d="M1609.56,-234C1729.06,-234 2083.03,-234 2269.32,-234"/>
<polygon fill="black" stroke="black" points="2269.43,-237.5 2279.43,-234 2269.43,-230.5 2269.43,-237.5"/>
</g>
<!-- Pandas_Cheat_Sheet.pdf -->
<g id="node50" class="node"><title>Pandas_Cheat_Sheet.pdf</title>
<g id="a_node50"><a xlink:href="https://github.com/pandas-dev/pandas/blob/master/doc/cheatsheet/Pandas_Cheat_Sheet.pdf" xlink:title="Pandas_Cheat_Sheet.pdf">
<polygon fill="none" stroke="black" points="2511.83,-180 2449.91,-198 2326.09,-198 2264.17,-180 2326.09,-162 2449.91,-162 2511.83,-180"/>
<text text-anchor="middle" x="2388" y="-175.8" font-family="Times,serif" font-size="14.00" fill="blue">Pandas_Cheat_Sheet.pdf</text>
</a>
</g>
</g>
<!-- データ分析&#45;&gt;Pandas_Cheat_Sheet.pdf -->
<g id="edge52" class="edge"><title>データ分析&#45;&gt;Pandas_Cheat_Sheet.pdf</title>
<path fill="none" stroke="black" d="M1609.6,-231.573C1686.29,-226.967 1857.7,-216.559 2002,-207 2095.26,-200.822 2201.19,-193.361 2278.3,-187.849"/>
<polygon fill="black" stroke="black" points="2278.78,-191.323 2288.5,-187.118 2278.28,-184.341 2278.78,-191.323"/>
</g>
<!-- Pythonによるデータ分析入門 ――NumPy、pandasを使ったデータ処理 -->
<g id="node51" class="node"><title>Pythonによるデータ分析入門 ――NumPy、pandasを使ったデータ処理</title>
<g id="a_node51"><a xlink:href="https://www.oreilly.co.jp/books/9784873116556/" xlink:title="Pythonによるデータ分析入門 ――NumPy、pandasを使ったデータ処理">
<polygon fill="none" stroke="black" points="2735.8,-126 2561.9,-144 2214.1,-144 2040.2,-126 2214.1,-108 2561.9,-108 2735.8,-126"/>
<text text-anchor="middle" x="2388" y="-121.8" font-family="Times,serif" font-size="14.00" fill="blue">Pythonによるデータ分析入門 ――NumPy、pandasを使ったデータ処理</text>
</a>
</g>
</g>
<!-- データ分析&#45;&gt;Pythonによるデータ分析入門 ――NumPy、pandasを使ったデータ処理 -->
<g id="edge53" class="edge"><title>データ分析&#45;&gt;Pythonによるデータ分析入門 ――NumPy、pandasを使ったデータ処理</title>
<path fill="none" stroke="black" d="M1609.51,-242.399C1690.15,-256.887 1873.98,-278.6 2002,-207 2027.61,-192.675 2014.5,-167.521 2040,-153 2052.69,-145.773 2066.08,-139.67 2079.92,-134.543"/>
<polygon fill="black" stroke="black" points="2081.3,-137.768 2089.57,-131.148 2078.98,-131.164 2081.3,-137.768"/>
</g>
<!-- 集合知プログラミング -->
<g id="node52" class="node"><title>集合知プログラミング</title>
<g id="a_node52"><a xlink:href="https://www.amazon.co.jp/dp/4873113644" xlink:title="集合知プログラミング">
<polygon fill="none" stroke="black" points="2497.25,-72 2442.63,-90 2333.37,-90 2278.75,-72 2333.37,-54 2442.63,-54 2497.25,-72"/>
<text text-anchor="middle" x="2388" y="-67.8" font-family="Times,serif" font-size="14.00" fill="blue">集合知プログラミング</text>
</a>
</g>
</g>
<!-- 応用例（データ分析活用）&#45;&gt;集合知プログラミング -->
<g id="edge55" class="edge"><title>応用例（データ分析活用）&#45;&gt;集合知プログラミング</title>
<path fill="none" stroke="black" d="M1663.37,-196.486C1755.76,-207.714 1897.48,-211.456 2002,-153 2027.61,-138.675 2014.5,-113.521 2040,-99 2120.62,-53.0961 2229.34,-52.5403 2303.47,-59.4503"/>
<polygon fill="black" stroke="black" points="2303.39,-62.9601 2313.69,-60.4709 2304.09,-55.9947 2303.39,-62.9601"/>
</g>
<!-- Introduction to Computation and Programming Using Python, Revised And Expanded Edition -->
<g id="node53" class="node"><title>Introduction to Computation and Programming Using Python, Revised And Expanded Edition</title>
<g id="a_node53"><a xlink:href="https://mitpress.mit.edu/books/introduction-computation-and-programming-using-python-0" xlink:title="Introduction to Computation and Programming Using Python, Revised And Expanded Edition">
<polygon fill="none" stroke="black" points="2001.79,-126 1784.9,-144 1351.1,-144 1134.21,-126 1351.1,-108 1784.9,-108 2001.79,-126"/>
<text text-anchor="middle" x="1568" y="-121.8" font-family="Times,serif" font-size="14.00" fill="blue">Introduction to Computation and Programming Using Python, Revised And Expanded Edition</text>
</a>
</g>
</g>
<!-- 広い意味での問題解決&#45;&gt;Introduction to Computation and Programming Using Python, Revised And Expanded Edition -->
<g id="edge57" class="edge"><title>広い意味での問題解決&#45;&gt;Introduction to Computation and Programming Using Python, Revised And Expanded Edition</title>
<path fill="none" stroke="black" d="M709.379,-126C803.107,-126 965.477,-126 1123.89,-126"/>
<polygon fill="black" stroke="black" points="1124.32,-129.5 1134.32,-126 1124.32,-122.5 1124.32,-129.5"/>
</g>
<!-- Runestone Interactive -->
<g id="node59" class="node"><title>Runestone Interactive</title>
<g id="a_node59"><a xlink:href="http://runestoneinteractive.org/library.html" xlink:title="Runestone Interactive">
<polygon fill="none" stroke="black" points="1678.05,-72 1623.03,-90 1512.97,-90 1457.95,-72 1512.97,-54 1623.03,-54 1678.05,-72"/>
<text text-anchor="middle" x="1568" y="-67.8" font-family="Times,serif" font-size="14.00" fill="blue">Runestone Interactive</text>
</a>
</g>
</g>
<!-- 広い意味での問題解決&#45;&gt;Runestone Interactive -->
<g id="edge58" class="edge"><title>広い意味での問題解決&#45;&gt;Runestone Interactive</title>
<path fill="none" stroke="black" d="M709.379,-121.373C879.409,-111.584 1275.33,-88.7913 1463.77,-77.9431"/>
<polygon fill="black" stroke="black" points="1464.17,-81.4257 1473.95,-77.3566 1463.77,-74.4372 1464.17,-81.4257"/>
</g>
<!-- 入門 自然言語処理 -->
<g id="node54" class="node"><title>入門 自然言語処理</title>
<g id="a_node54"><a xlink:href="https://www.oreilly.co.jp/books/9784873114705/" xlink:title="入門 自然言語処理">
<polygon fill="none" stroke="black" points="1682.94,-18 1625.47,-36 1510.53,-36 1453.06,-18 1510.53,-1.77636e-14 1625.47,-0 1682.94,-18"/>
<text text-anchor="middle" x="1568" y="-13.8" font-family="Times,serif" font-size="14.00" fill="blue">入門 自然言語処理</text>
</a>
</g>
</g>
<!-- 自然言語処理&#45;&gt;入門 自然言語処理 -->
<g id="edge60" class="edge"><title>自然言語処理&#45;&gt;入門 自然言語処理</title>
<path fill="none" stroke="black" d="M682.8,-43.4514C831.143,-39.1814 1248.46,-27.1689 1452.21,-21.3043"/>
<polygon fill="black" stroke="black" points="1452.44,-24.799 1462.34,-21.0126 1452.24,-17.8019 1452.44,-24.799"/>
</g>
</g>
</svg>
