<?xml version="1.0" encoding="UTF-8" standalone="no"?>
<!DOCTYPE svg PUBLIC "-//W3C//DTD SVG 1.1//EN"
 "http://www.w3.org/Graphics/SVG/1.1/DTD/svg11.dtd">
<!-- Generated by graphviz version 2.36.0 (20140111.2315)
 -->
<!-- Title: python_programming_chart Pages: 1 -->
<svg width="2744pt" height="1502pt"
 viewBox="0.00 0.00 2744.00 1502.00" xmlns="http://www.w3.org/2000/svg" xmlns:xlink="http://www.w3.org/1999/xlink">
<g id="graph0" class="graph" transform="scale(1 1) rotate(0) translate(4 1498)">
<title>python_programming_chart</title>
<polygon fill="white" stroke="none" points="-4,4 -4,-1498 2740,-1498 2740,4 -4,4"/>
<!-- Start -->
<g id="node1" class="node"><title>Start</title>
<polygon fill="none" stroke="black" points="54,-414 0,-414 0,-378 54,-378 54,-414"/>
<text text-anchor="middle" x="27" y="-391.8" font-family="Times,serif" font-size="14.00">Start</text>
</g>
<!-- 具体的に実現したい目的が既にある？ -->
<g id="node2" class="node"><title>具体的に実現したい目的が既にある？</title>
<polygon fill="none" stroke="black" points="331.365,-414 92.6354,-414 92.6354,-378 331.365,-378 331.365,-414"/>
<text text-anchor="middle" x="212" y="-391.8" font-family="Times,serif" font-size="14.00">具体的に実現したい目的が既にある？</text>
</g>
<!-- Start&#45;&gt;具体的に実現したい目的が既にある？ -->
<g id="edge1" class="edge"><title>Start&#45;&gt;具体的に実現したい目的が既にある？</title>
<path fill="none" stroke="black" d="M54.2194,-396C62.383,-396 71.9931,-396 82.3706,-396"/>
<polygon fill="black" stroke="black" points="82.5331,-399.5 92.533,-396 82.533,-392.5 82.5331,-399.5"/>
</g>
<!-- プログラミング自体が初めて？ -->
<g id="node4" class="node"><title>プログラミング自体が初めて？</title>
<polygon fill="none" stroke="black" points="729.073,-1035 526.927,-1035 526.927,-999 729.073,-999 729.073,-1035"/>
<text text-anchor="middle" x="628" y="-1012.8" font-family="Times,serif" font-size="14.00">プログラミング自体が初めて？</text>
</g>
<!-- 具体的に実現したい目的が既にある？&#45;&gt;プログラミング自体が初めて？ -->
<g id="edge2" class="edge"><title>具体的に実現したい目的が既にある？&#45;&gt;プログラミング自体が初めて？</title>
<path fill="none" stroke="black" d="M225.166,-414.249C284.021,-502.531 539.219,-885.329 609.196,-990.294"/>
<polygon fill="black" stroke="black" points="606.374,-992.371 614.833,-998.75 612.198,-988.488 606.374,-992.371"/>
<text text-anchor="middle" x="410" y="-785.2" font-family="Times,serif" font-size="14.00">特に決まっていない</text>
</g>
<!-- 機械学習 -->
<g id="node7" class="node"><title>機械学習</title>
<polygon fill="none" stroke="black" points="661.894,-650 594.106,-650 594.106,-614 661.894,-614 661.894,-650"/>
<text text-anchor="middle" x="628" y="-627.8" font-family="Times,serif" font-size="14.00">機械学習</text>
</g>
<!-- 具体的に実現したい目的が既にある？&#45;&gt;機械学習 -->
<g id="edge19" class="edge"><title>具体的に実現したい目的が既にある？&#45;&gt;機械学習</title>
<path fill="none" stroke="black" d="M242.867,-414.166C293.098,-444.59 397.848,-507.48 488,-558 520.248,-576.071 557.208,-595.697 584.906,-610.194"/>
<polygon fill="black" stroke="black" points="583.44,-613.376 593.924,-614.904 586.68,-607.172 583.44,-613.376"/>
</g>
<!-- IoTとか組み込み系 -->
<g id="node11" class="node"><title>IoTとか組み込み系</title>
<polygon fill="none" stroke="black" points="699.146,-549 556.854,-549 556.854,-513 699.146,-513 699.146,-549"/>
<text text-anchor="middle" x="628" y="-526.8" font-family="Times,serif" font-size="14.00">IoTとか組み込み系</text>
</g>
<!-- 具体的に実現したい目的が既にある？&#45;&gt;IoTとか組み込み系 -->
<g id="edge30" class="edge"><title>具体的に実現したい目的が既にある？&#45;&gt;IoTとか組み込み系</title>
<path fill="none" stroke="black" d="M268.404,-414.067C344.52,-438.887 481.172,-483.447 562.019,-509.81"/>
<polygon fill="black" stroke="black" points="561.001,-513.16 571.594,-512.933 563.171,-506.505 561.001,-513.16"/>
</g>
<!-- Webアプリ -->
<g id="node12" class="node"><title>Webアプリ</title>
<polygon fill="none" stroke="black" points="668.732,-468 587.268,-468 587.268,-432 668.732,-432 668.732,-468"/>
<text text-anchor="middle" x="628" y="-445.8" font-family="Times,serif" font-size="14.00">Webアプリ</text>
</g>
<!-- 具体的に実現したい目的が既にある？&#45;&gt;Webアプリ -->
<g id="edge32" class="edge"><title>具体的に実現したい目的が既にある？&#45;&gt;Webアプリ</title>
<path fill="none" stroke="black" d="M331.636,-411.474C412.949,-422.08 516.658,-435.608 577.067,-443.487"/>
<polygon fill="black" stroke="black" points="576.736,-446.973 587.104,-444.796 577.641,-440.032 576.736,-446.973"/>
</g>
<!-- データ収集（クローラ/スクレイピング） -->
<g id="node14" class="node"><title>データ収集（クローラ/スクレイピング）</title>
<polygon fill="none" stroke="black" points="768.245,-414 487.755,-414 487.755,-378 768.245,-378 768.245,-414"/>
<text text-anchor="middle" x="628" y="-391.8" font-family="Times,serif" font-size="14.00">データ収集（クローラ/スクレイピング）</text>
</g>
<!-- 具体的に実現したい目的が既にある？&#45;&gt;データ収集（クローラ/スクレイピング） -->
<g id="edge37" class="edge"><title>具体的に実現したい目的が既にある？&#45;&gt;データ収集（クローラ/スクレイピング）</title>
<path fill="none" stroke="black" d="M331.636,-396C377.142,-396 429.663,-396 477.683,-396"/>
<polygon fill="black" stroke="black" points="477.857,-399.5 487.857,-396 477.857,-392.5 477.857,-399.5"/>
</g>
<!-- ゲームアプリ -->
<g id="node15" class="node"><title>ゲームアプリ</title>
<polygon fill="none" stroke="black" points="678.891,-360 577.109,-360 577.109,-324 678.891,-324 678.891,-360"/>
<text text-anchor="middle" x="628" y="-337.8" font-family="Times,serif" font-size="14.00">ゲームアプリ</text>
</g>
<!-- 具体的に実現したい目的が既にある？&#45;&gt;ゲームアプリ -->
<g id="edge39" class="edge"><title>具体的に実現したい目的が既にある？&#45;&gt;ゲームアプリ</title>
<path fill="none" stroke="black" d="M331.636,-380.526C408.545,-370.494 505.489,-357.849 566.88,-349.842"/>
<polygon fill="black" stroke="black" points="567.704,-353.264 577.167,-348.5 566.799,-346.323 567.704,-353.264"/>
</g>
<!-- 統計処理/データ分析 -->
<g id="node18" class="node"><title>統計処理/データ分析</title>
<polygon fill="none" stroke="black" points="700.246,-212 555.754,-212 555.754,-176 700.246,-176 700.246,-212"/>
<text text-anchor="middle" x="628" y="-189.8" font-family="Times,serif" font-size="14.00">統計処理/データ分析</text>
</g>
<!-- 具体的に実現したい目的が既にある？&#45;&gt;統計処理/データ分析 -->
<g id="edge46" class="edge"><title>具体的に実現したい目的が既にある？&#45;&gt;統計処理/データ分析</title>
<path fill="none" stroke="black" d="M250.104,-377.896C325.782,-340.971 497.778,-257.05 580.656,-216.612"/>
<polygon fill="black" stroke="black" points="582.378,-219.667 589.83,-212.136 579.308,-213.376 582.378,-219.667"/>
</g>
<!-- 広い意味での問題解決 -->
<g id="node22" class="node"><title>広い意味での問題解決</title>
<polygon fill="none" stroke="black" points="709.119,-141 546.881,-141 546.881,-105 709.119,-105 709.119,-141"/>
<text text-anchor="middle" x="628" y="-118.8" font-family="Times,serif" font-size="14.00">広い意味での問題解決</text>
</g>
<!-- 具体的に実現したい目的が既にある？&#45;&gt;広い意味での問題解決 -->
<g id="edge55" class="edge"><title>具体的に実現したい目的が既にある？&#45;&gt;広い意味での問題解決</title>
<path fill="none" stroke="black" d="M228.998,-377.917C268.445,-334.498 375.373,-223.761 488,-167 505.887,-157.986 525.996,-150.34 545.246,-144.078"/>
<polygon fill="black" stroke="black" points="546.434,-147.374 554.914,-141.023 544.324,-140.699 546.434,-147.374"/>
</g>
<!-- 自然言語処理 -->
<g id="node23" class="node"><title>自然言語処理</title>
<polygon fill="none" stroke="black" points="682.928,-53 573.072,-53 573.072,-17 682.928,-17 682.928,-53"/>
<text text-anchor="middle" x="628" y="-30.8" font-family="Times,serif" font-size="14.00">自然言語処理</text>
</g>
<!-- 具体的に実現したい目的が既にある？&#45;&gt;自然言語処理 -->
<g id="edge57" class="edge"><title>具体的に実現したい目的が既にある？&#45;&gt;自然言語処理</title>
<path fill="none" stroke="black" d="M220.7,-377.82C238.482,-337.528 285.848,-239.366 350,-177 411.332,-117.376 502.714,-77.1976 563.541,-55.2121"/>
<polygon fill="black" stroke="black" points="564.781,-58.486 573.032,-51.8396 562.437,-51.8901 564.781,-58.486"/>
</g>
<!-- 課題例 -->
<g id="node3" class="node"><title>課題例</title>
<polygon fill="none" stroke="black" points="1601.04,-1386 1534.96,-1386 1534.96,-1350 1601.04,-1350 1601.04,-1386"/>
<text text-anchor="middle" x="1568" y="-1363.8" font-family="Times,serif" font-size="14.00">課題例</text>
</g>
<!-- CodeIQ -->
<g id="node55" class="node"><title>CodeIQ</title>
<g id="a_node55"><a xlink:href="https://codeiq.jp" xlink:title="CodeIQ">
<polygon fill="none" stroke="black" points="2436.09,-1476 2412.04,-1494 2363.96,-1494 2339.91,-1476 2363.96,-1458 2412.04,-1458 2436.09,-1476"/>
<text text-anchor="middle" x="2388" y="-1471.8" font-family="Times,serif" font-size="14.00" fill="blue">CodeIQ</text>
</a>
</g>
</g>
<!-- 課題例&#45;&gt;CodeIQ -->
<g id="edge15" class="edge"><title>課題例&#45;&gt;CodeIQ</title>
<path fill="none" stroke="black" d="M1601.11,-1374.58C1677.07,-1389.92 1873.89,-1428.3 2040,-1449 2142.95,-1461.83 2263.88,-1469.59 2332.37,-1473.32"/>
<polygon fill="black" stroke="black" points="2332.33,-1476.82 2342.5,-1473.86 2332.7,-1469.83 2332.33,-1476.82"/>
</g>
<!-- 言語処理100本ノック 2015 -->
<g id="node56" class="node"><title>言語処理100本ノック 2015</title>
<g id="a_node56"><a xlink:href="http://www.cl.ecei.tohoku.ac.jp/nlp100/" xlink:title="言語処理100本ノック 2015">
<polygon fill="none" stroke="black" points="2530.41,-1422 2459.2,-1440 2316.8,-1440 2245.59,-1422 2316.8,-1404 2459.2,-1404 2530.41,-1422"/>
<text text-anchor="middle" x="2388" y="-1417.8" font-family="Times,serif" font-size="14.00" fill="blue">言語処理100本ノック 2015</text>
</a>
</g>
</g>
<!-- 課題例&#45;&gt;言語処理100本ノック 2015 -->
<g id="edge16" class="edge"><title>課題例&#45;&gt;言語処理100本ノック 2015</title>
<path fill="none" stroke="black" d="M1601.07,-1370.12C1710.4,-1377.33 2072.38,-1401.23 2264.59,-1413.92"/>
<polygon fill="black" stroke="black" points="2264.53,-1417.42 2274.74,-1414.59 2264.99,-1410.44 2264.53,-1417.42"/>
</g>
<!-- プログラミングコンテスト -->
<g id="node57" class="node"><title>プログラミングコンテスト</title>
<g id="a_node57"><a xlink:href="http://cocodrips.hateblo.jp/entry/2015/10/11/114212" xlink:title="プログラミングコンテスト">
<polygon fill="none" stroke="black" points="2515.47,-1368 2451.74,-1386 2324.26,-1386 2260.53,-1368 2324.26,-1350 2451.74,-1350 2515.47,-1368"/>
<text text-anchor="middle" x="2388" y="-1363.8" font-family="Times,serif" font-size="14.00" fill="blue">プログラミングコンテスト</text>
</a>
</g>
</g>
<!-- 課題例&#45;&gt;プログラミングコンテスト -->
<g id="edge17" class="edge"><title>課題例&#45;&gt;プログラミングコンテスト</title>
<path fill="none" stroke="black" d="M1601.07,-1368C1707.76,-1368 2055.1,-1368 2250.42,-1368"/>
<polygon fill="black" stroke="black" points="2250.47,-1371.5 2260.47,-1368 2250.47,-1364.5 2250.47,-1371.5"/>
</g>
<!-- CoodingBat -->
<g id="node58" class="node"><title>CoodingBat</title>
<g id="a_node58"><a xlink:href="http://codingbat.com/python" xlink:title="CoodingBat">
<polygon fill="none" stroke="black" points="2454.78,-1314 2421.39,-1332 2354.61,-1332 2321.22,-1314 2354.61,-1296 2421.39,-1296 2454.78,-1314"/>
<text text-anchor="middle" x="2388" y="-1309.8" font-family="Times,serif" font-size="14.00" fill="blue">CoodingBat</text>
</a>
</g>
</g>
<!-- 課題例&#45;&gt;CoodingBat -->
<g id="edge18" class="edge"><title>課題例&#45;&gt;CoodingBat</title>
<path fill="none" stroke="black" d="M1601.07,-1365.88C1721.7,-1357.92 2149.95,-1329.65 2318.31,-1318.53"/>
<polygon fill="black" stroke="black" points="2318.55,-1322.03 2328.3,-1317.88 2318.09,-1315.04 2318.55,-1322.03"/>
</g>
<!-- プログラミング自体が初めて？&#45;&gt;課題例 -->
<g id="edge14" class="edge"><title>プログラミング自体が初めて？&#45;&gt;課題例</title>
<path fill="none" stroke="black" d="M643.912,-1035.23C669.686,-1065.52 725.634,-1126.15 786,-1159 1044.46,-1299.65 1403.36,-1350.1 1524.87,-1363.76"/>
<polygon fill="black" stroke="black" points="1524.55,-1367.24 1534.88,-1364.86 1525.32,-1360.29 1524.55,-1367.24"/>
<text text-anchor="middle" x="951" y="-1289.2" font-family="Times,serif" font-size="14.00">No3（課題を探したい）</text>
</g>
<!-- 取り敢えず動かしながら学びたい -->
<g id="node5" class="node"><title>取り敢えず動かしながら学びたい</title>
<polygon fill="none" stroke="black" points="1663.86,-1205 1472.14,-1205 1472.14,-1169 1663.86,-1169 1663.86,-1205"/>
<text text-anchor="middle" x="1568" y="-1182.8" font-family="Times,serif" font-size="14.00">取り敢えず動かしながら学びたい</text>
</g>
<!-- プログラミング自体が初めて？&#45;&gt;取り敢えず動かしながら学びたい -->
<g id="edge3" class="edge"><title>プログラミング自体が初めて？&#45;&gt;取り敢えず動かしながら学びたい</title>
<path fill="none" stroke="black" d="M668.846,-1035.1C700.104,-1048.59 745.031,-1066.43 786,-1077 1023.18,-1138.19 1310.25,-1167.58 1461.67,-1179.73"/>
<polygon fill="black" stroke="black" points="1461.64,-1183.24 1471.89,-1180.54 1462.2,-1176.26 1461.64,-1183.24"/>
<text text-anchor="middle" x="951" y="-1143.2" font-family="Times,serif" font-size="14.00">Yes1（環境構築とか考えたくない）</text>
</g>
<!-- もう少し言語仕様を詳細に学びたい -->
<g id="node6" class="node"><title>もう少し言語仕様を詳細に学びたい</title>
<polygon fill="none" stroke="black" points="1682.95,-1089 1453.05,-1089 1453.05,-1053 1682.95,-1053 1682.95,-1089"/>
<text text-anchor="middle" x="1568" y="-1066.8" font-family="Times,serif" font-size="14.00">もう少し言語仕様を詳細に学びたい</text>
</g>
<!-- プログラミング自体が初めて？&#45;&gt;もう少し言語仕様を詳細に学びたい -->
<g id="edge7" class="edge"><title>プログラミング自体が初めて？&#45;&gt;もう少し言語仕様を詳細に学びたい</title>
<path fill="none" stroke="black" d="M729.373,-1031.05C748.161,-1033.32 767.657,-1035.44 786,-1037 1017.33,-1056.74 1288.25,-1065.28 1442.54,-1068.77"/>
<polygon fill="black" stroke="black" points="1442.91,-1072.28 1452.99,-1069.01 1443.07,-1065.28 1442.91,-1072.28"/>
<text text-anchor="middle" x="951" y="-1061.2" font-family="Times,serif" font-size="14.00">Yes2（少しその先へ）</text>
</g>
<!-- google keywords: python3 プログラミング 本 -->
<g id="node30" class="node"><title>google keywords: python3 プログラミング 本</title>
<g id="a_node30"><a xlink:href="https://goo.gl/Xj40mU" xlink:title="google keywords: python3 プログラミング 本">
<polygon fill="none" stroke="black" points="1778.05,-1017 1673.03,-1035 1462.97,-1035 1357.95,-1017 1462.97,-999 1673.03,-999 1778.05,-1017"/>
<text text-anchor="middle" x="1568" y="-1012.8" font-family="Times,serif" font-size="14.00" fill="blue">google keywords: python3 プログラミング 本</text>
</a>
</g>
</g>
<!-- プログラミング自体が初めて？&#45;&gt;google keywords: python3 プログラミング 本 -->
<g id="edge11" class="edge"><title>プログラミング自体が初めて？&#45;&gt;google keywords: python3 プログラミング 本</title>
<path fill="none" stroke="black" d="M729.382,-1017C876.06,-1017 1152.68,-1017 1347.82,-1017"/>
<polygon fill="black" stroke="black" points="1347.93,-1020.5 1357.93,-1017 1347.93,-1013.5 1347.93,-1020.5"/>
<text text-anchor="middle" x="951" y="-1021.2" font-family="Times,serif" font-size="14.00">Yes3（他には？）</text>
</g>
<!-- みんなのPython Webアプリ編 &#45; 復習!! Python -->
<g id="node31" class="node"><title>みんなのPython Webアプリ編 &#45; 復習!! Python</title>
<g id="a_node31"><a xlink:href="http://coreblog.org/ats/stuff/minpy_web/02/index.html" xlink:title="みんなのPython Webアプリ編 &#45; 復習!! Python">
<polygon fill="none" stroke="black" points="1790.8,-963 1679.4,-981 1456.6,-981 1345.2,-963 1456.6,-945 1679.4,-945 1790.8,-963"/>
<text text-anchor="middle" x="1568" y="-958.8" font-family="Times,serif" font-size="14.00" fill="blue">みんなのPython Webアプリ編 &#45; 復習!! Python</text>
</a>
</g>
</g>
<!-- プログラミング自体が初めて？&#45;&gt;みんなのPython Webアプリ編 &#45; 復習!! Python -->
<g id="edge12" class="edge"><title>プログラミング自体が初めて？&#45;&gt;みんなのPython Webアプリ編 &#45; 復習!! Python</title>
<path fill="none" stroke="black" d="M729.358,-1002.35C748.148,-999.991 767.648,-997.803 786,-996.2 978.983,-979.348 1199.57,-970.967 1356.98,-966.85"/>
<polygon fill="black" stroke="black" points="1357.35,-970.342 1367.25,-966.585 1357.17,-963.344 1357.35,-970.342"/>
<text text-anchor="middle" x="951" y="-1000.2" font-family="Times,serif" font-size="14.00">No1（他言語でFizzBuzzレベルならやったことある）</text>
</g>
<!-- The Python Tutorial -->
<g id="node32" class="node"><title>The Python Tutorial</title>
<g id="a_node32"><a xlink:href="https://docs.python.org/3/tutorial/" xlink:title="The Python Tutorial">
<polygon fill="none" stroke="black" points="1671.36,-909 1619.68,-927 1516.32,-927 1464.64,-909 1516.32,-891 1619.68,-891 1671.36,-909"/>
<text text-anchor="middle" x="1568" y="-904.8" font-family="Times,serif" font-size="14.00" fill="blue">The Python Tutorial</text>
</a>
</g>
</g>
<!-- プログラミング自体が初めて？&#45;&gt;The Python Tutorial -->
<g id="edge13" class="edge"><title>プログラミング自体が初めて？&#45;&gt;The Python Tutorial</title>
<path fill="none" stroke="black" d="M664.424,-998.984C695.574,-984.088 742.589,-963.869 786,-954.2 1025.58,-900.837 1316.12,-900.291 1466.27,-904.584"/>
<polygon fill="black" stroke="black" points="1466.3,-908.086 1476.4,-904.887 1466.51,-901.089 1466.3,-908.086"/>
<text text-anchor="middle" x="951" y="-958.2" font-family="Times,serif" font-size="14.00">No2（他言語で入門書ぐらいは通したことがある）</text>
</g>
<!-- Code School -->
<g id="node24" class="node"><title>Code School</title>
<g id="a_node24"><a xlink:href="https://www.codeschool.com/learn/python" xlink:title="Code School">
<polygon fill="none" stroke="black" points="2458.09,-1260 2423.04,-1278 2352.96,-1278 2317.91,-1260 2352.96,-1242 2423.04,-1242 2458.09,-1260"/>
<text text-anchor="middle" x="2388" y="-1255.8" font-family="Times,serif" font-size="14.00" fill="blue">Code School</text>
</a>
</g>
</g>
<!-- 取り敢えず動かしながら学びたい&#45;&gt;Code School -->
<g id="edge4" class="edge"><title>取り敢えず動かしながら学びたい&#45;&gt;Code School</title>
<path fill="none" stroke="black" d="M1664.12,-1196.84C1759.22,-1206.56 1909.66,-1221.57 2040,-1233 2135.52,-1241.38 2245.96,-1249.75 2316.12,-1254.9"/>
<polygon fill="black" stroke="black" points="2315.94,-1258.39 2326.17,-1255.63 2316.45,-1251.41 2315.94,-1258.39"/>
</g>
<!-- paiza -->
<g id="node25" class="node"><title>paiza</title>
<g id="a_node25"><a xlink:href="https://paiza.jp/works/python3/primer" xlink:title="paiza">
<polygon fill="none" stroke="black" points="2424.04,-1206 2406.02,-1224 2369.98,-1224 2351.96,-1206 2369.98,-1188 2406.02,-1188 2424.04,-1206"/>
<text text-anchor="middle" x="2388" y="-1201.8" font-family="Times,serif" font-size="14.00" fill="blue">paiza</text>
</a>
</g>
</g>
<!-- 取り敢えず動かしながら学びたい&#45;&gt;paiza -->
<g id="edge5" class="edge"><title>取り敢えず動かしながら学びたい&#45;&gt;paiza</title>
<path fill="none" stroke="black" d="M1664.03,-1189.21C1840.73,-1193.31 2213.54,-1201.97 2342.21,-1204.96"/>
<polygon fill="black" stroke="black" points="2342.4,-1208.46 2352.48,-1205.2 2342.56,-1201.47 2342.4,-1208.46"/>
</g>
<!-- progate -->
<g id="node26" class="node"><title>progate</title>
<g id="a_node26"><a xlink:href="https://prog-8.com" xlink:title="progate">
<polygon fill="none" stroke="black" points="2434.36,-1152 2411.18,-1170 2364.82,-1170 2341.64,-1152 2364.82,-1134 2411.18,-1134 2434.36,-1152"/>
<text text-anchor="middle" x="2388" y="-1147.8" font-family="Times,serif" font-size="14.00" fill="blue">progate</text>
</a>
</g>
</g>
<!-- 取り敢えず動かしながら学びたい&#45;&gt;progate -->
<g id="edge6" class="edge"><title>取り敢えず動かしながら学びたい&#45;&gt;progate</title>
<path fill="none" stroke="black" d="M1664.03,-1182.93C1836.98,-1175.53 2197.81,-1160.09 2333.7,-1154.28"/>
<polygon fill="black" stroke="black" points="2334.01,-1157.77 2343.85,-1153.85 2333.71,-1150.78 2334.01,-1157.77"/>
</g>
<!-- 初めてのPython 第3版 -->
<g id="node27" class="node"><title>初めてのPython 第3版</title>
<g id="a_node27"><a xlink:href="https://www.oreilly.co.jp/books/9784873113937/" xlink:title="初めてのPython 第3版">
<polygon fill="none" stroke="black" points="2499.6,-1098 2443.8,-1116 2332.2,-1116 2276.4,-1098 2332.2,-1080 2443.8,-1080 2499.6,-1098"/>
<text text-anchor="middle" x="2388" y="-1093.8" font-family="Times,serif" font-size="14.00" fill="blue">初めてのPython 第3版</text>
</a>
</g>
</g>
<!-- もう少し言語仕様を詳細に学びたい&#45;&gt;初めてのPython 第3版 -->
<g id="edge8" class="edge"><title>もう少し言語仕様を詳細に学びたい&#45;&gt;初めてのPython 第3版</title>
<path fill="none" stroke="black" d="M1682.74,-1074.75C1839.74,-1079.94 2121.04,-1089.22 2276.38,-1094.35"/>
<polygon fill="black" stroke="black" points="2276.32,-1097.85 2286.43,-1094.68 2276.55,-1090.85 2276.32,-1097.85"/>
</g>
<!-- Learning Python, 5th Edition -->
<g id="node28" class="node"><title>Learning Python, 5th Edition</title>
<g id="a_node28"><a xlink:href="http://shop.oreilly.com/product/0636920028154.do" xlink:title="Learning Python, 5th Edition">
<polygon fill="none" stroke="black" points="2530.66,-1044 2459.33,-1062 2316.67,-1062 2245.34,-1044 2316.67,-1026 2459.33,-1026 2530.66,-1044"/>
<text text-anchor="middle" x="2388" y="-1039.8" font-family="Times,serif" font-size="14.00" fill="blue">Learning Python, 5th Edition</text>
</a>
</g>
</g>
<!-- もう少し言語仕様を詳細に学びたい&#45;&gt;Learning Python, 5th Edition -->
<g id="edge9" class="edge"><title>もう少し言語仕様を詳細に学びたい&#45;&gt;Learning Python, 5th Edition</title>
<path fill="none" stroke="black" d="M1682.74,-1067.25C1831.58,-1062.33 2092.13,-1053.73 2251.17,-1048.48"/>
<polygon fill="black" stroke="black" points="2251.62,-1051.97 2261.5,-1048.14 2251.39,-1044.97 2251.62,-1051.97"/>
</g>
<!-- Coursera -->
<g id="node29" class="node"><title>Coursera</title>
<g id="a_node29"><a xlink:href="https://www.coursera.org/courses?query=python" xlink:title="Coursera">
<polygon fill="none" stroke="black" points="2440.98,-990 2414.49,-1008 2361.51,-1008 2335.02,-990 2361.51,-972 2414.49,-972 2440.98,-990"/>
<text text-anchor="middle" x="2388" y="-985.8" font-family="Times,serif" font-size="14.00" fill="blue">Coursera</text>
</a>
</g>
</g>
<!-- もう少し言語仕様を詳細に学びたい&#45;&gt;Coursera -->
<g id="edge10" class="edge"><title>もう少し言語仕様を詳細に学びたい&#45;&gt;Coursera</title>
<path fill="none" stroke="black" d="M1683.17,-1080.66C1772.5,-1084.29 1898.51,-1080.61 2002,-1044 2021.53,-1037.09 2020.52,-1024.06 2040,-1017 2137.4,-981.7 2259.98,-981.572 2330.32,-985.338"/>
<polygon fill="black" stroke="black" points="2330.54,-988.857 2340.73,-985.945 2330.95,-981.869 2330.54,-988.857"/>
</g>
<!-- 中身も勉強したい（機械学習） -->
<g id="node8" class="node"><title>中身も勉強したい（機械学習）</title>
<polygon fill="none" stroke="black" points="1678.33,-819 1457.67,-819 1457.67,-783 1678.33,-783 1678.33,-819"/>
<text text-anchor="middle" x="1568" y="-796.8" font-family="Times,serif" font-size="14.00">中身も勉強したい（機械学習）</text>
</g>
<!-- 機械学習&#45;&gt;中身も勉強したい（機械学習） -->
<g id="edge20" class="edge"><title>機械学習&#45;&gt;中身も勉強したい（機械学習）</title>
<path fill="none" stroke="black" d="M662.108,-637.965C788.597,-660.755 1244.85,-742.958 1457.05,-781.19"/>
<polygon fill="black" stroke="black" points="1456.51,-784.648 1466.97,-782.977 1457.75,-777.759 1456.51,-784.648"/>
</g>
<!-- 取り敢えず動かしたい（機械学習） -->
<g id="node9" class="node"><title>取り敢えず動かしたい（機械学習）</title>
<polygon fill="none" stroke="black" points="1678.43,-684 1457.57,-684 1457.57,-648 1678.43,-648 1678.43,-684"/>
<text text-anchor="middle" x="1568" y="-661.8" font-family="Times,serif" font-size="14.00">取り敢えず動かしたい（機械学習）</text>
</g>
<!-- 機械学習&#45;&gt;取り敢えず動かしたい（機械学習） -->
<g id="edge26" class="edge"><title>機械学習&#45;&gt;取り敢えず動かしたい（機械学習）</title>
<path fill="none" stroke="black" d="M662.078,-633.287C693.851,-634.518 743.205,-636.415 786,-638 1020.1,-646.67 1293.68,-656.381 1447,-661.786"/>
<polygon fill="black" stroke="black" points="1447.26,-665.297 1457.38,-662.152 1447.51,-658.302 1447.26,-665.297"/>
</g>
<!-- 事例ベースで学びたい（機械学習） -->
<g id="node10" class="node"><title>事例ベースで学びたい（機械学習）</title>
<polygon fill="none" stroke="black" points="1690.52,-630 1445.48,-630 1445.48,-594 1690.52,-594 1690.52,-630"/>
<text text-anchor="middle" x="1568" y="-607.8" font-family="Times,serif" font-size="14.00">事例ベースで学びたい（機械学習）</text>
</g>
<!-- 機械学習&#45;&gt;事例ベースで学びたい（機械学習） -->
<g id="edge28" class="edge"><title>機械学習&#45;&gt;事例ベースで学びたい（機械学習）</title>
<path fill="none" stroke="black" d="M662.108,-631.294C784.415,-628.686 1215.04,-619.505 1435.22,-614.81"/>
<polygon fill="black" stroke="black" points="1435.3,-618.309 1445.22,-614.597 1435.15,-611.311 1435.3,-618.309"/>
</g>
<!-- ゼロから作るDeep Learning -->
<g id="node33" class="node"><title>ゼロから作るDeep Learning</title>
<g id="a_node33"><a xlink:href="https://www.oreilly.co.jp/books/9784873117584/" xlink:title="ゼロから作るDeep Learning">
<polygon fill="none" stroke="black" points="2536.66,-936 2462.33,-954 2313.67,-954 2239.34,-936 2313.67,-918 2462.33,-918 2536.66,-936"/>
<text text-anchor="middle" x="2388" y="-931.8" font-family="Times,serif" font-size="14.00" fill="blue">ゼロから作るDeep Learning</text>
</a>
</g>
</g>
<!-- 中身も勉強したい（機械学習）&#45;&gt;ゼロから作るDeep Learning -->
<g id="edge21" class="edge"><title>中身も勉強したい（機械学習）&#45;&gt;ゼロから作るDeep Learning</title>
<path fill="none" stroke="black" d="M1678.63,-808.384C1768.5,-817.483 1897.46,-837.634 2002,-882 2021.07,-890.094 2020.52,-901.941 2040,-909 2108.08,-933.676 2188.47,-941.165 2254.72,-942.151"/>
<polygon fill="black" stroke="black" points="2254.77,-945.652 2264.81,-942.253 2254.85,-938.652 2254.77,-945.652"/>
</g>
<!-- Python Machine Learning -->
<g id="node34" class="node"><title>Python Machine Learning</title>
<g id="a_node34"><a xlink:href="https://github.com/rasbt/python-machine-learning-book" xlink:title="Python Machine Learning">
<polygon fill="none" stroke="black" points="2517.36,-882 2452.68,-900 2323.32,-900 2258.64,-882 2323.32,-864 2452.68,-864 2517.36,-882"/>
<text text-anchor="middle" x="2388" y="-877.8" font-family="Times,serif" font-size="14.00" fill="blue">Python Machine Learning</text>
</a>
</g>
</g>
<!-- 中身も勉強したい（機械学習）&#45;&gt;Python Machine Learning -->
<g id="edge22" class="edge"><title>中身も勉強したい（機械学習）&#45;&gt;Python Machine Learning</title>
<path fill="none" stroke="black" d="M1678.8,-814.737C1774.18,-826.395 1916.08,-843.08 2040,-855 2117.81,-862.485 2205.58,-869.299 2273.39,-874.21"/>
<polygon fill="black" stroke="black" points="2273.44,-877.723 2283.67,-874.951 2273.94,-870.741 2273.44,-877.723"/>
</g>
<!-- scikit&#45;learn: Machine Learning in Python -->
<g id="node35" class="node"><title>scikit&#45;learn: Machine Learning in Python</title>
<g id="a_node35"><a xlink:href="http://scikit-learn.org/stable/" xlink:title="scikit&#45;learn: Machine Learning in Python">
<polygon fill="none" stroke="black" points="2584.87,-828 2486.43,-846 2289.57,-846 2191.13,-828 2289.57,-810 2486.43,-810 2584.87,-828"/>
<text text-anchor="middle" x="2388" y="-823.8" font-family="Times,serif" font-size="14.00" fill="blue">scikit&#45;learn: Machine Learning in Python</text>
</a>
</g>
</g>
<!-- 中身も勉強したい（機械学習）&#45;&gt;scikit&#45;learn: Machine Learning in Python -->
<g id="edge23" class="edge"><title>中身も勉強したい（機械学習）&#45;&gt;scikit&#45;learn: Machine Learning in Python</title>
<path fill="none" stroke="black" d="M1678.47,-804.613C1814.71,-809.11 2049.11,-816.847 2210.77,-822.183"/>
<polygon fill="black" stroke="black" points="2210.72,-825.683 2220.83,-822.515 2210.95,-818.687 2210.72,-825.683"/>
</g>
<!-- 機械学習 はじめよう -->
<g id="node36" class="node"><title>機械学習 はじめよう</title>
<g id="a_node36"><a xlink:href="http://gihyo.jp/dev/serial/01/machine-learning" xlink:title="機械学習 はじめよう">
<polygon fill="none" stroke="black" points="2491.57,-774 2439.79,-792 2336.21,-792 2284.43,-774 2336.21,-756 2439.79,-756 2491.57,-774"/>
<text text-anchor="middle" x="2388" y="-769.8" font-family="Times,serif" font-size="14.00" fill="blue">機械学習 はじめよう</text>
</a>
</g>
</g>
<!-- 中身も勉強したい（機械学習）&#45;&gt;機械学習 はじめよう -->
<g id="edge24" class="edge"><title>中身も勉強したい（機械学習）&#45;&gt;機械学習 はじめよう</title>
<path fill="none" stroke="black" d="M1678.47,-797.387C1836.83,-792.16 2127.82,-782.555 2283.04,-777.431"/>
<polygon fill="black" stroke="black" points="2283.18,-780.929 2293.06,-777.101 2282.95,-773.932 2283.18,-780.929"/>
</g>
<!-- 機械学習の Python との出会い -->
<g id="node37" class="node"><title>機械学習の Python との出会い</title>
<g id="a_node37"><a xlink:href="http://www.kamishima.net/mlmpyja/" xlink:title="機械学習の Python との出会い">
<polygon fill="none" stroke="black" points="2550.94,-720 2469.47,-738 2306.53,-738 2225.06,-720 2306.53,-702 2469.47,-702 2550.94,-720"/>
<text text-anchor="middle" x="2388" y="-715.8" font-family="Times,serif" font-size="14.00" fill="blue">機械学習の Python との出会い</text>
</a>
</g>
</g>
<!-- 中身も勉強したい（機械学習）&#45;&gt;機械学習の Python との出会い -->
<g id="edge25" class="edge"><title>中身も勉強したい（機械学習）&#45;&gt;機械学習の Python との出会い</title>
<path fill="none" stroke="black" d="M1678.8,-787.263C1774.18,-775.605 1916.08,-758.92 2040,-747 2110.22,-740.245 2188.57,-734.035 2253.02,-729.279"/>
<polygon fill="black" stroke="black" points="2253.53,-732.751 2263.24,-728.528 2253.02,-725.77 2253.53,-732.751"/>
</g>
<!-- scikit&#45;learn: Quick Start -->
<g id="node38" class="node"><title>scikit&#45;learn: Quick Start</title>
<g id="a_node38"><a xlink:href="http://scikit-learn.org/stable/documentation.html" xlink:title="scikit&#45;learn: Quick Start">
<polygon fill="none" stroke="black" points="2507.77,-666 2447.88,-684 2328.12,-684 2268.23,-666 2328.12,-648 2447.88,-648 2507.77,-666"/>
<text text-anchor="middle" x="2388" y="-661.8" font-family="Times,serif" font-size="14.00" fill="blue">scikit&#45;learn: Quick Start</text>
</a>
</g>
</g>
<!-- 取り敢えず動かしたい（機械学習）&#45;&gt;scikit&#45;learn: Quick Start -->
<g id="edge27" class="edge"><title>取り敢えず動かしたい（機械学習）&#45;&gt;scikit&#45;learn: Quick Start</title>
<path fill="none" stroke="black" d="M1678.47,-666C1828.53,-666 2097.66,-666 2257.53,-666"/>
<polygon fill="black" stroke="black" points="2257.9,-669.5 2267.9,-666 2257.9,-662.5 2257.9,-669.5"/>
</g>
<!-- データサイエンティスト養成読本　機械学習入門編 -->
<g id="node39" class="node"><title>データサイエンティスト養成読本　機械学習入門編</title>
<g id="a_node39"><a xlink:href="https://www.amazon.co.jp/データサイエンティスト養成読本-機械学習入門編-比戸将平-ebook/dp/B0152OV4VW/" xlink:title="データサイエンティスト養成読本　機械学習入門編">
<polygon fill="none" stroke="black" points="2648.78,-612 2518.39,-630 2257.61,-630 2127.22,-612 2257.61,-594 2518.39,-594 2648.78,-612"/>
<text text-anchor="middle" x="2388" y="-607.8" font-family="Times,serif" font-size="14.00" fill="blue">データサイエンティスト養成読本　機械学習入門編</text>
</a>
</g>
</g>
<!-- 事例ベースで学びたい（機械学習）&#45;&gt;データサイエンティスト養成読本　機械学習入門編 -->
<g id="edge29" class="edge"><title>事例ベースで学びたい（機械学習）&#45;&gt;データサイエンティスト養成読本　機械学習入門編</title>
<path fill="none" stroke="black" d="M1690.58,-612C1802.5,-612 1972.47,-612 2116.48,-612"/>
<polygon fill="black" stroke="black" points="2116.8,-615.5 2126.8,-612 2116.8,-608.5 2116.8,-615.5"/>
</g>
<!-- Raspberry Piクックブック -->
<g id="node40" class="node"><title>Raspberry Piクックブック</title>
<g id="a_node40"><a xlink:href="https://www.oreilly.co.jp/books/9784873116907/" xlink:title="Raspberry Piクックブック">
<polygon fill="none" stroke="black" points="1700.6,-558 1634.3,-576 1501.7,-576 1435.4,-558 1501.7,-540 1634.3,-540 1700.6,-558"/>
<text text-anchor="middle" x="1568" y="-553.8" font-family="Times,serif" font-size="14.00" fill="blue">Raspberry Piクックブック</text>
</a>
</g>
</g>
<!-- IoTとか組み込み系&#45;&gt;Raspberry Piクックブック -->
<g id="edge31" class="edge"><title>IoTとか組み込み系&#45;&gt;Raspberry Piクックブック</title>
<path fill="none" stroke="black" d="M699.502,-533.029C856.518,-537.549 1236.94,-548.499 1437.81,-554.281"/>
<polygon fill="black" stroke="black" points="1437.73,-557.78 1447.83,-554.57 1437.93,-550.783 1437.73,-557.78"/>
</g>
<!-- Django -->
<g id="node13" class="node"><title>Django</title>
<polygon fill="none" stroke="black" points="1596.71,-522 1539.29,-522 1539.29,-486 1596.71,-486 1596.71,-522"/>
<text text-anchor="middle" x="1568" y="-499.8" font-family="Times,serif" font-size="14.00">Django</text>
</g>
<!-- Webアプリ&#45;&gt;Django -->
<g id="edge34" class="edge"><title>Webアプリ&#45;&gt;Django</title>
<path fill="none" stroke="black" d="M668.65,-453.953C700.373,-457.015 746.008,-461.194 786,-464 1071.37,-484.024 1416.06,-498.183 1529.1,-502.567"/>
<polygon fill="black" stroke="black" points="1529.18,-506.073 1539.31,-502.961 1529.45,-499.078 1529.18,-506.073"/>
</g>
<!-- PythonでWeb開発入門 みんなのPython Webアプリ編 HTML版 -->
<g id="node41" class="node"><title>PythonでWeb開発入門 みんなのPython Webアプリ編 HTML版</title>
<g id="a_node41"><a xlink:href="http://coreblog.org/ats/stuff/minpy_web/" xlink:title="PythonでWeb開発入門 みんなのPython Webアプリ編 HTML版">
<polygon fill="none" stroke="black" points="1880.47,-450 1724.24,-468 1411.76,-468 1255.53,-450 1411.76,-432 1724.24,-432 1880.47,-450"/>
<text text-anchor="middle" x="1568" y="-445.8" font-family="Times,serif" font-size="14.00" fill="blue">PythonでWeb開発入門 みんなのPython Webアプリ編 HTML版</text>
</a>
</g>
</g>
<!-- Webアプリ&#45;&gt;PythonでWeb開発入門 みんなのPython Webアプリ編 HTML版 -->
<g id="edge33" class="edge"><title>Webアプリ&#45;&gt;PythonでWeb開発入門 みんなのPython Webアプリ編 HTML版</title>
<path fill="none" stroke="black" d="M668.706,-450C767.004,-450 1029.37,-450 1245.34,-450"/>
<polygon fill="black" stroke="black" points="1245.59,-453.5 1255.59,-450 1245.59,-446.5 1245.59,-453.5"/>
</g>
<!-- Getting started with Django -->
<g id="node42" class="node"><title>Getting started with Django</title>
<g id="a_node42"><a xlink:href="https://www.djangoproject.com/start/" xlink:title="Getting started with Django">
<polygon fill="none" stroke="black" points="2524.85,-558 2456.42,-576 2319.58,-576 2251.15,-558 2319.58,-540 2456.42,-540 2524.85,-558"/>
<text text-anchor="middle" x="2388" y="-553.8" font-family="Times,serif" font-size="14.00" fill="blue">Getting started with Django</text>
</a>
</g>
</g>
<!-- Django&#45;&gt;Getting started with Django -->
<g id="edge35" class="edge"><title>Django&#45;&gt;Getting started with Django</title>
<path fill="none" stroke="black" d="M1596.61,-505.647C1665.21,-509.756 1848.87,-520.857 2002,-531 2092.06,-536.966 2193.94,-544.129 2270.26,-549.577"/>
<polygon fill="black" stroke="black" points="2270.16,-553.079 2280.38,-550.301 2270.66,-546.097 2270.16,-553.079"/>
</g>
<!-- Django: Web Development with Python -->
<g id="node43" class="node"><title>Django: Web Development with Python</title>
<g id="a_node43"><a xlink:href="http://shop.oreilly.com/product/9781787121386.do" xlink:title="Django: Web Development with Python">
<polygon fill="none" stroke="black" points="2580.23,-504 2484.11,-522 2291.89,-522 2195.77,-504 2291.89,-486 2484.11,-486 2580.23,-504"/>
<text text-anchor="middle" x="2388" y="-499.8" font-family="Times,serif" font-size="14.00" fill="blue">Django: Web Development with Python</text>
</a>
</g>
</g>
<!-- Django&#45;&gt;Django: Web Development with Python -->
<g id="edge36" class="edge"><title>Django&#45;&gt;Django: Web Development with Python</title>
<path fill="none" stroke="black" d="M1596.69,-504C1687.6,-504 1982.74,-504 2185.44,-504"/>
<polygon fill="black" stroke="black" points="2185.62,-507.5 2195.62,-504 2185.62,-500.5 2185.62,-507.5"/>
</g>
<!-- PythonによるWebスクレイピング -->
<g id="node44" class="node"><title>PythonによるWebスクレイピング</title>
<g id="a_node44"><a xlink:href="https://www.oreilly.co.jp/books/9784873117614/" xlink:title="PythonによるWebスクレイピング">
<polygon fill="none" stroke="black" points="1731.12,-396 1649.56,-414 1486.44,-414 1404.88,-396 1486.44,-378 1649.56,-378 1731.12,-396"/>
<text text-anchor="middle" x="1568" y="-391.8" font-family="Times,serif" font-size="14.00" fill="blue">PythonによるWebスクレイピング</text>
</a>
</g>
</g>
<!-- データ収集（クローラ/スクレイピング）&#45;&gt;PythonによるWebスクレイピング -->
<g id="edge38" class="edge"><title>データ収集（クローラ/スクレイピング）&#45;&gt;PythonによるWebスクレイピング</title>
<path fill="none" stroke="black" d="M768.162,-396C934.895,-396 1214.26,-396 1394.53,-396"/>
<polygon fill="black" stroke="black" points="1394.65,-399.5 1404.65,-396 1394.65,-392.5 1394.65,-399.5"/>
</g>
<!-- PCアプリ -->
<g id="node16" class="node"><title>PCアプリ</title>
<polygon fill="none" stroke="black" points="1603.92,-360 1532.08,-360 1532.08,-324 1603.92,-324 1603.92,-360"/>
<text text-anchor="middle" x="1568" y="-337.8" font-family="Times,serif" font-size="14.00">PCアプリ</text>
</g>
<!-- ゲームアプリ&#45;&gt;PCアプリ -->
<g id="edge40" class="edge"><title>ゲームアプリ&#45;&gt;PCアプリ</title>
<path fill="none" stroke="black" d="M678.769,-342C842.601,-342 1363.59,-342 1521.32,-342"/>
<polygon fill="black" stroke="black" points="1521.61,-345.5 1531.61,-342 1521.61,-338.5 1521.61,-345.5"/>
</g>
<!-- スマートフォンアプリ -->
<g id="node17" class="node"><title>スマートフォンアプリ</title>
<polygon fill="none" stroke="black" points="1641.07,-306 1494.93,-306 1494.93,-270 1641.07,-270 1641.07,-306"/>
<text text-anchor="middle" x="1568" y="-283.8" font-family="Times,serif" font-size="14.00">スマートフォンアプリ</text>
</g>
<!-- ゲームアプリ&#45;&gt;スマートフォンアプリ -->
<g id="edge43" class="edge"><title>ゲームアプリ&#45;&gt;スマートフォンアプリ</title>
<path fill="none" stroke="black" d="M678.769,-339.135C831.529,-330.341 1294.81,-303.67 1484.59,-292.744"/>
<polygon fill="black" stroke="black" points="1485,-296.227 1494.78,-292.158 1484.6,-289.238 1485,-296.227"/>
</g>
<!-- Pythonでゲーム作りますが何か？ -->
<g id="node45" class="node"><title>Pythonでゲーム作りますが何か？</title>
<g id="a_node45"><a xlink:href="http://aidiary.hatenablog.com/entry/20080507/1269694935" xlink:title="Pythonでゲーム作りますが何か？">
<polygon fill="none" stroke="black" points="2574.16,-450 2481.08,-468 2294.92,-468 2201.84,-450 2294.92,-432 2481.08,-432 2574.16,-450"/>
<text text-anchor="middle" x="2388" y="-445.8" font-family="Times,serif" font-size="14.00" fill="blue">Pythonでゲーム作りますが何か？</text>
</a>
</g>
</g>
<!-- PCアプリ&#45;&gt;Pythonでゲーム作りますが何か？ -->
<g id="edge41" class="edge"><title>PCアプリ&#45;&gt;Pythonでゲーム作りますが何か？</title>
<path fill="none" stroke="black" d="M1604.09,-334.593C1681.62,-320.166 1871.02,-295.746 2002,-369 2027.61,-383.325 2014.5,-408.479 2040,-423 2108.07,-461.757 2196.17,-468.187 2266.56,-465.091"/>
<polygon fill="black" stroke="black" points="2267.01,-468.573 2276.82,-464.568 2266.65,-461.582 2267.01,-468.573"/>
</g>
<!-- Pygame -->
<g id="node46" class="node"><title>Pygame</title>
<g id="a_node46"><a xlink:href="http://www.pygame.org/news.html" xlink:title="Pygame">
<polygon fill="none" stroke="black" points="2436.84,-396 2412.42,-414 2363.58,-414 2339.16,-396 2363.58,-378 2412.42,-378 2436.84,-396"/>
<text text-anchor="middle" x="2388" y="-391.8" font-family="Times,serif" font-size="14.00" fill="blue">Pygame</text>
</a>
</g>
</g>
<!-- PCアプリ&#45;&gt;Pygame -->
<g id="edge42" class="edge"><title>PCアプリ&#45;&gt;Pygame</title>
<path fill="none" stroke="black" d="M1604.08,-344.095C1677.79,-348.518 1854.13,-359.205 2002,-369 2120.29,-376.836 2258.97,-386.737 2333.36,-392.106"/>
<polygon fill="black" stroke="black" points="2333.19,-395.603 2343.42,-392.833 2333.69,-388.622 2333.19,-395.603"/>
</g>
<!-- Pythonista 3 -->
<g id="node47" class="node"><title>Pythonista 3</title>
<g id="a_node47"><a xlink:href="http://omz-software.com/pythonista/" xlink:title="Pythonista 3">
<polygon fill="none" stroke="black" points="2456.38,-342 2422.19,-360 2353.81,-360 2319.62,-342 2353.81,-324 2422.19,-324 2456.38,-342"/>
<text text-anchor="middle" x="2388" y="-337.8" font-family="Times,serif" font-size="14.00" fill="blue">Pythonista 3</text>
</a>
</g>
</g>
<!-- スマートフォンアプリ&#45;&gt;Pythonista 3 -->
<g id="edge45" class="edge"><title>スマートフォンアプリ&#45;&gt;Pythonista 3</title>
<path fill="none" stroke="black" d="M1641.41,-292.343C1727.41,-297.542 1875.18,-306.599 2002,-315 2112.37,-322.311 2240.5,-331.421 2317.58,-336.969"/>
<polygon fill="black" stroke="black" points="2317.42,-340.467 2327.65,-337.695 2317.93,-333.485 2317.42,-340.467"/>
</g>
<!-- （別言語を選んだほうが、、） -->
<g id="node59" class="node"><title>（別言語を選んだほうが、、）</title>
<polygon fill="none" stroke="black" points="2561.75,-288 2474.88,-306 2301.12,-306 2214.25,-288 2301.12,-270 2474.88,-270 2561.75,-288"/>
<text text-anchor="middle" x="2388" y="-283.8" font-family="Times,serif" font-size="14.00" fill="blue">（別言語を選んだほうが、、）</text>
</g>
<!-- スマートフォンアプリ&#45;&gt;（別言語を選んだほうが、、） -->
<g id="edge44" class="edge"><title>スマートフォンアプリ&#45;&gt;（別言語を選んだほうが、、）</title>
<path fill="none" stroke="black" d="M1641.23,-288C1766.19,-288 2026.31,-288 2203.81,-288"/>
<polygon fill="black" stroke="black" points="2204.05,-291.5 2214.05,-288 2204.05,-284.5 2204.05,-291.5"/>
</g>
<!-- ベクトル・行列演算 -->
<g id="node19" class="node"><title>ベクトル・行列演算</title>
<polygon fill="none" stroke="black" points="1640.09,-252 1495.91,-252 1495.91,-216 1640.09,-216 1640.09,-252"/>
<text text-anchor="middle" x="1568" y="-229.8" font-family="Times,serif" font-size="14.00">ベクトル・行列演算</text>
</g>
<!-- 統計処理/データ分析&#45;&gt;ベクトル・行列演算 -->
<g id="edge47" class="edge"><title>統計処理/データ分析&#45;&gt;ベクトル・行列演算</title>
<path fill="none" stroke="black" d="M700.492,-198.935C727.302,-200.685 758.041,-202.573 786,-204 1041.16,-217.024 1343.47,-227.119 1485.54,-231.547"/>
<polygon fill="black" stroke="black" points="1485.8,-235.057 1495.9,-231.869 1486.01,-228.06 1485.8,-235.057"/>
</g>
<!-- データ分析 -->
<g id="node20" class="node"><title>データ分析</title>
<polygon fill="none" stroke="black" points="1609.3,-198 1526.7,-198 1526.7,-162 1609.3,-162 1609.3,-198"/>
<text text-anchor="middle" x="1568" y="-175.8" font-family="Times,serif" font-size="14.00">データ分析</text>
</g>
<!-- 統計処理/データ分析&#45;&gt;データ分析 -->
<g id="edge49" class="edge"><title>統計処理/データ分析&#45;&gt;データ分析</title>
<path fill="none" stroke="black" d="M700.272,-192.936C881.967,-190.224 1359.19,-183.102 1516.15,-180.759"/>
<polygon fill="black" stroke="black" points="1516.51,-184.254 1526.46,-180.605 1516.4,-177.255 1516.51,-184.254"/>
</g>
<!-- 応用例（データ分析活用） -->
<g id="node21" class="node"><title>応用例（データ分析活用）</title>
<polygon fill="none" stroke="black" points="1663.02,-144 1472.98,-144 1472.98,-108 1663.02,-108 1663.02,-144"/>
<text text-anchor="middle" x="1568" y="-121.8" font-family="Times,serif" font-size="14.00">応用例（データ分析活用）</text>
</g>
<!-- 統計処理/データ分析&#45;&gt;応用例（データ分析活用） -->
<g id="edge53" class="edge"><title>統計処理/データ分析&#45;&gt;応用例（データ分析活用）</title>
<path fill="none" stroke="black" d="M700.471,-187.773C798.285,-179.348 979.365,-164.098 1134,-153 1246.19,-144.949 1374.84,-137.103 1462.56,-131.962"/>
<polygon fill="black" stroke="black" points="1463.01,-135.443 1472.79,-131.365 1462.6,-128.454 1463.01,-135.443"/>
</g>
<!-- Numpy: Quickstart tutorial -->
<g id="node48" class="node"><title>Numpy: Quickstart tutorial</title>
<g id="a_node48"><a xlink:href="https://docs.scipy.org/doc/numpy-dev/user/quickstart.html" xlink:title="Numpy: Quickstart tutorial">
<polygon fill="none" stroke="black" points="2521.54,-234 2454.77,-252 2321.23,-252 2254.46,-234 2321.23,-216 2454.77,-216 2521.54,-234"/>
<text text-anchor="middle" x="2388" y="-229.8" font-family="Times,serif" font-size="14.00" fill="blue">Numpy: Quickstart tutorial</text>
</a>
</g>
</g>
<!-- ベクトル・行列演算&#45;&gt;Numpy: Quickstart tutorial -->
<g id="edge48" class="edge"><title>ベクトル・行列演算&#45;&gt;Numpy: Quickstart tutorial</title>
<path fill="none" stroke="black" d="M1640.16,-234C1774.47,-234 2067.66,-234 2244.1,-234"/>
<polygon fill="black" stroke="black" points="2244.24,-237.5 2254.24,-234 2244.24,-230.5 2244.24,-237.5"/>
</g>
<!-- 10 Minutes to pandas -->
<g id="node49" class="node"><title>10 Minutes to pandas</title>
<g id="a_node49"><a xlink:href="http://pandas.pydata.org/pandas-docs/stable/10min.html" xlink:title="10 Minutes to pandas">
<polygon fill="none" stroke="black" points="2496.38,-180 2442.19,-198 2333.81,-198 2279.62,-180 2333.81,-162 2442.19,-162 2496.38,-180"/>
<text text-anchor="middle" x="2388" y="-175.8" font-family="Times,serif" font-size="14.00" fill="blue">10 Minutes to pandas</text>
</a>
</g>
</g>
<!-- データ分析&#45;&gt;10 Minutes to pandas -->
<g id="edge50" class="edge"><title>データ分析&#45;&gt;10 Minutes to pandas</title>
<path fill="none" stroke="black" d="M1609.56,-180C1729.06,-180 2083.03,-180 2269.32,-180"/>
<polygon fill="black" stroke="black" points="2269.43,-183.5 2279.43,-180 2269.43,-176.5 2269.43,-183.5"/>
</g>
<!-- Pandas_Cheat_Sheet.pdf -->
<g id="node50" class="node"><title>Pandas_Cheat_Sheet.pdf</title>
<g id="a_node50"><a xlink:href="https://github.com/pandas-dev/pandas/blob/master/doc/cheatsheet/Pandas_Cheat_Sheet.pdf" xlink:title="Pandas_Cheat_Sheet.pdf">
<polygon fill="none" stroke="black" points="2511.83,-126 2449.91,-144 2326.09,-144 2264.17,-126 2326.09,-108 2449.91,-108 2511.83,-126"/>
<text text-anchor="middle" x="2388" y="-121.8" font-family="Times,serif" font-size="14.00" fill="blue">Pandas_Cheat_Sheet.pdf</text>
</a>
</g>
</g>
<!-- データ分析&#45;&gt;Pandas_Cheat_Sheet.pdf -->
<g id="edge51" class="edge"><title>データ分析&#45;&gt;Pandas_Cheat_Sheet.pdf</title>
<path fill="none" stroke="black" d="M1609.6,-177.573C1686.29,-172.967 1857.7,-162.559 2002,-153 2095.26,-146.822 2201.19,-139.361 2278.3,-133.849"/>
<polygon fill="black" stroke="black" points="2278.78,-137.323 2288.5,-133.118 2278.28,-130.341 2278.78,-137.323"/>
</g>
<!-- Pythonによるデータ分析入門 ――NumPy、pandasを使ったデータ処理 -->
<g id="node51" class="node"><title>Pythonによるデータ分析入門 ――NumPy、pandasを使ったデータ処理</title>
<g id="a_node51"><a xlink:href="https://www.oreilly.co.jp/books/9784873116556/" xlink:title="Pythonによるデータ分析入門 ――NumPy、pandasを使ったデータ処理">
<polygon fill="none" stroke="black" points="2735.8,-72 2561.9,-90 2214.1,-90 2040.2,-72 2214.1,-54 2561.9,-54 2735.8,-72"/>
<text text-anchor="middle" x="2388" y="-67.8" font-family="Times,serif" font-size="14.00" fill="blue">Pythonによるデータ分析入門 ――NumPy、pandasを使ったデータ処理</text>
</a>
</g>
</g>
<!-- データ分析&#45;&gt;Pythonによるデータ分析入門 ――NumPy、pandasを使ったデータ処理 -->
<g id="edge52" class="edge"><title>データ分析&#45;&gt;Pythonによるデータ分析入門 ――NumPy、pandasを使ったデータ処理</title>
<path fill="none" stroke="black" d="M1609.51,-188.399C1690.15,-202.887 1873.98,-224.6 2002,-153 2027.61,-138.675 2014.5,-113.521 2040,-99 2052.69,-91.7728 2066.08,-85.6697 2079.92,-80.5428"/>
<polygon fill="black" stroke="black" points="2081.3,-83.7678 2089.57,-77.1476 2078.98,-77.1644 2081.3,-83.7678"/>
</g>
<!-- 集合知プログラミング -->
<g id="node52" class="node"><title>集合知プログラミング</title>
<g id="a_node52"><a xlink:href="https://www.amazon.co.jp/dp/4873113644" xlink:title="集合知プログラミング">
<polygon fill="none" stroke="black" points="2497.25,-18 2442.63,-36 2333.37,-36 2278.75,-18 2333.37,-1.77636e-14 2442.63,-0 2497.25,-18"/>
<text text-anchor="middle" x="2388" y="-13.8" font-family="Times,serif" font-size="14.00" fill="blue">集合知プログラミング</text>
</a>
</g>
</g>
<!-- 応用例（データ分析活用）&#45;&gt;集合知プログラミング -->
<g id="edge54" class="edge"><title>応用例（データ分析活用）&#45;&gt;集合知プログラミング</title>
<path fill="none" stroke="black" d="M1663.37,-142.486C1755.76,-153.714 1897.48,-157.456 2002,-99 2027.61,-84.6753 2014.5,-59.5212 2040,-45 2120.62,0.903929 2229.34,1.45967 2303.47,-5.45028"/>
<polygon fill="black" stroke="black" points="2303.39,-8.96009 2313.69,-6.47091 2304.09,-1.99472 2303.39,-8.96009"/>
</g>
<!-- Introduction to Computation and Programming Using Python, Revised And Expanded Edition -->
<g id="node53" class="node"><title>Introduction to Computation and Programming Using Python, Revised And Expanded Edition</title>
<g id="a_node53"><a xlink:href="https://mitpress.mit.edu/books/introduction-computation-and-programming-using-python-0" xlink:title="Introduction to Computation and Programming Using Python, Revised And Expanded Edition">
<polygon fill="none" stroke="black" points="2001.79,-72 1784.9,-90 1351.1,-90 1134.21,-72 1351.1,-54 1784.9,-54 2001.79,-72"/>
<text text-anchor="middle" x="1568" y="-67.8" font-family="Times,serif" font-size="14.00" fill="blue">Introduction to Computation and Programming Using Python, Revised And Expanded Edition</text>
</a>
</g>
</g>
<!-- 広い意味での問題解決&#45;&gt;Introduction to Computation and Programming Using Python, Revised And Expanded Edition -->
<g id="edge56" class="edge"><title>広い意味での問題解決&#45;&gt;Introduction to Computation and Programming Using Python, Revised And Expanded Edition</title>
<path fill="none" stroke="black" d="M709.379,-118.63C837.992,-111.637 1095.85,-97.617 1295.39,-86.7675"/>
<polygon fill="black" stroke="black" points="1295.65,-90.2587 1305.45,-86.2208 1295.27,-83.269 1295.65,-90.2587"/>
</g>
<!-- 入門 自然言語処理 -->
<g id="node54" class="node"><title>入門 自然言語処理</title>
<g id="a_node54"><a xlink:href="https://www.oreilly.co.jp/books/9784873114705/" xlink:title="入門 自然言語処理">
<polygon fill="none" stroke="black" points="1682.94,-18 1625.47,-36 1510.53,-36 1453.06,-18 1510.53,-1.77636e-14 1625.47,-0 1682.94,-18"/>
<text text-anchor="middle" x="1568" y="-13.8" font-family="Times,serif" font-size="14.00" fill="blue">入門 自然言語処理</text>
</a>
</g>
</g>
<!-- 自然言語処理&#45;&gt;入門 自然言語処理 -->
<g id="edge58" class="edge"><title>自然言語処理&#45;&gt;入門 自然言語処理</title>
<path fill="none" stroke="black" d="M682.8,-34.0249C830.377,-31.3503 1244.16,-23.851 1449.03,-20.138"/>
<polygon fill="black" stroke="black" points="1449.29,-23.6339 1459.23,-19.9532 1449.17,-16.6351 1449.29,-23.6339"/>
</g>
</g>
</svg>
